<?xml version="1.0" standalone="no"?>
<!DOCTYPE svg PUBLIC "-//W3C//DTD SVG 1.1//EN" "http://www.w3.org/Graphics/SVG/1.1/DTD/svg11.dtd" >
<svg xmlns="http://www.w3.org/2000/svg">
<metadata>Generated by IcoMoon</metadata>
<defs>
<font id="icomoon" horiz-adv-x="1024">
<font-face units-per-em="1024" ascent="960" descent="-64" />
<missing-glyph horiz-adv-x="1024" />
<glyph unicode="&#x20;" horiz-adv-x="512" d="" />
<glyph unicode="&#xe900;" glyph-name="166" d="M511.335 520.562c-40.682 0-73.227-32.546-73.227-73.227s32.545-73.227 73.227-73.227c40.681 0 73.227 32.545 73.227 73.227s-32.546 73.227-73.227 73.227zM511.335 353.185c-52.211 0-94.15 41.939-94.15 94.15 0 52.21 41.939 94.149 94.15 94.149s94.149-41.939 94.149-94.149c0-52.211-41.939-94.15-94.149-94.15v0zM466.876 436.874c-4.707 0-7.846 3.139-7.846 7.846 0 30.598 24.322 54.92 54.921 54.92 4.707 0 7.845-3.138 7.845-7.845s-3.138-7.846-7.845-7.846c-21.969 0-39.229-17.26-39.229-39.228 0-4.707-3.138-7.846-7.845-7.846zM1024 789.333c0-94.257-76.41-170.667-170.667-170.667s-170.667 76.41-170.667 170.667c0 94.257 76.41 170.667 170.667 170.667s170.667-76.41 170.667-170.667z" />
<glyph unicode="&#xe901;" glyph-name="167" d="M511.335 520.562c-40.682 0-73.227-32.546-73.227-73.227s32.545-73.227 73.227-73.227c40.681 0 73.227 32.545 73.227 73.227s-32.546 73.227-73.227 73.227zM511.335 353.185c-52.211 0-94.15 41.939-94.15 94.15 0 52.21 41.939 94.149 94.15 94.149s94.149-41.939 94.149-94.149c0-52.211-41.939-94.15-94.149-94.15v0zM466.876 436.874c-4.707 0-7.846 3.139-7.846 7.846 0 30.598 24.322 54.92 54.921 54.92 4.707 0 7.845-3.138 7.845-7.845s-3.138-7.846-7.845-7.846c-21.969 0-39.229-17.26-39.229-39.228 0-4.707-3.138-7.846-7.845-7.846zM1024 789.333c0-94.257-76.41-170.667-170.667-170.667s-170.667 76.41-170.667 170.667c0 94.257 76.41 170.667 170.667 170.667s170.667-76.41 170.667-170.667z" />
<glyph unicode="&#xe912;" glyph-name="1" d="M277.333 277.333c-82.964 0-149.333-66.372-149.333-149.333 0-82.964 66.37-149.333 149.333-149.333 82.962 0 149.333 66.37 149.333 149.333s-66.372 149.333-149.333 149.333zM277.334-64c-106.474 0-192.001 85.527-192.001 192.001 0 106.472 85.527 191.999 192.001 191.999 106.472 0 191.999-85.527 191.999-191.999 0-106.474-85.527-192.001-191.999-192.001v0zM186.668 106.667c-9.6 0-16.001 6.401-16.001 16.001 0 62.4 49.601 111.999 112.001 111.999 9.6 0 15.999-6.399 15.999-15.999s-6.399-16.001-15.999-16.001c-44.801 0-80-35.199-80-79.998 0-9.6-6.399-16.001-15.999-16.001zM213.332 917.333c-47.786 0-85.332-37.546-85.332-85.332 0-47.788 37.546-85.334 85.332-85.334 47.788 0 85.334 37.546 85.334 85.334 0 47.786-37.546 85.332-85.334 85.332zM213.332 704c-71.314 0-127.999 56.687-127.999 128.001s56.685 127.999 127.999 127.999c71.314 0 128.001-56.685 128.001-127.999s-56.687-128.001-128.001-128.001v0zM192.001 789.333c-12.8 0-21.335 8.535-21.335 21.335 0 36.264 27.734 63.999 63.999 63.999 12.8 0 21.335-8.535 21.335-21.335s-8.535-21.332-21.335-21.332c-12.8 0-21.332-8.532-21.332-21.332s-8.532-21.335-21.332-21.335zM789.334 704c-59.428 0-106.668-47.238-106.668-106.667s47.239-106.667 106.668-106.667c59.428 0 106.666 47.238 106.666 106.667s-47.237 106.667-106.666 106.667zM789.333 448c-82.964 0-149.333 66.37-149.333 149.333s66.37 149.333 149.333 149.333c82.962 0 149.333-66.37 149.333-149.333s-66.372-149.333-149.333-149.333v0zM739.555 576c-8.533 0-14.222 5.688-14.222 14.222 0 39.822 31.288 71.112 71.112 71.112 8.533 0 14.222-5.69 14.222-14.223s-5.688-14.222-14.222-14.222c-24.178 0-42.667-18.488-42.667-42.667 0-8.533-5.69-14.222-14.223-14.222zM666.257 661.333c-1.682 0-5.041 0-6.722 1.554l-351.178 139.934c-8.402 3.11-11.763 12.439-8.402 20.212 3.361 7.775 13.443 10.885 21.843 7.775l351.18-139.934c8.402-3.11 11.761-12.439 8.402-20.212-3.361-6.22-10.082-9.329-15.123-9.329zM406.649 226.918c-5.084-0.266-10.25 1.015-13.801 3.936-7.105 5.84-5.896 15.223 0.558 21.773l286.033 249.528c6.454 6.551 16.704 5.535 23.808-0.307 7.105-5.84 5.977-16.771-0.558-21.773l-286.114-247.978c-3.226-3.276-6.535-5.002-9.925-5.18z" />
<glyph unicode="&#xe913;" glyph-name="2" d="M277.333 277.333c-82.964 0-149.333-66.372-149.333-149.333 0-82.964 66.37-149.333 149.333-149.333 82.962 0 149.333 66.37 149.333 149.333s-66.372 149.333-149.333 149.333zM277.334-64c-106.474 0-192.001 85.527-192.001 192.001 0 106.472 85.527 191.999 192.001 191.999 106.472 0 191.999-85.527 191.999-191.999 0-106.474-85.527-192.001-191.999-192.001v0zM186.668 106.667c-9.6 0-16.001 6.401-16.001 16.001 0 62.4 49.601 111.999 112.001 111.999 9.6 0 15.999-6.399 15.999-15.999s-6.399-16.001-15.999-16.001c-44.801 0-80-35.199-80-79.998 0-9.6-6.399-16.001-15.999-16.001zM213.332 917.333c-47.786 0-85.332-37.546-85.332-85.332 0-47.788 37.546-85.334 85.332-85.334 47.788 0 85.334 37.546 85.334 85.334 0 47.786-37.546 85.332-85.334 85.332zM213.332 704c-71.314 0-127.999 56.687-127.999 128.001s56.685 127.999 127.999 127.999c71.314 0 128.001-56.685 128.001-127.999s-56.687-128.001-128.001-128.001v0zM192.001 789.333c-12.8 0-21.335 8.535-21.335 21.335 0 36.264 27.734 63.999 63.999 63.999 12.8 0 21.335-8.535 21.335-21.335s-8.535-21.332-21.335-21.332c-12.8 0-21.332-8.532-21.332-21.332s-8.532-21.335-21.332-21.335zM789.334 704c-59.428 0-106.668-47.238-106.668-106.667s47.239-106.667 106.668-106.667c59.428 0 106.666 47.238 106.666 106.667s-47.237 106.667-106.666 106.667zM789.333 448c-82.964 0-149.333 66.37-149.333 149.333s66.37 149.333 149.333 149.333c82.962 0 149.333-66.37 149.333-149.333s-66.372-149.333-149.333-149.333v0zM739.555 576c-8.533 0-14.222 5.688-14.222 14.222 0 39.822 31.288 71.112 71.112 71.112 8.533 0 14.222-5.69 14.222-14.223s-5.688-14.222-14.222-14.222c-24.178 0-42.667-18.488-42.667-42.667 0-8.533-5.69-14.222-14.223-14.222zM666.257 661.333c-1.682 0-5.041 0-6.722 1.554l-351.178 139.934c-8.402 3.11-11.763 12.439-8.402 20.212 3.361 7.775 13.443 10.885 21.843 7.775l351.18-139.934c8.402-3.11 11.761-12.439 8.402-20.212-3.361-6.22-10.082-9.329-15.123-9.329zM406.649 226.918c-5.084-0.266-10.25 1.015-13.801 3.936-7.105 5.84-5.896 15.223 0.558 21.773l286.033 249.528c6.454 6.551 16.704 5.535 23.808-0.307 7.105-5.84 5.977-16.771-0.558-21.773l-286.114-247.978c-3.226-3.276-6.535-5.002-9.925-5.18zM496.852 212.837c-3.911-0.205-7.888 0.839-10.625 3.201-5.478 4.723-4.566 12.286 0.387 17.556l219.569 200.651c4.953 5.269 12.84 4.431 18.317-0.294 5.478-4.723 4.631-13.535-0.387-17.556l-219.635-199.401c-2.475-2.635-5.018-4.021-7.626-4.157z" />
<glyph unicode="&#xe914;" glyph-name="3" d="M277.333 277.333c-82.964 0-149.333-66.372-149.333-149.333 0-82.964 66.37-149.333 149.333-149.333 82.962 0 149.333 66.37 149.333 149.333s-66.372 149.333-149.333 149.333zM277.334-64c-106.474 0-192.001 85.527-192.001 192.001 0 106.472 85.527 191.999 192.001 191.999 106.472 0 191.999-85.527 191.999-191.999 0-106.474-85.527-192.001-191.999-192.001v0zM186.668 106.667c-9.6 0-16.001 6.401-16.001 16.001 0 62.4 49.601 111.999 112.001 111.999 9.6 0 15.999-6.399 15.999-15.999s-6.399-16.001-15.999-16.001c-44.801 0-80-35.199-80-79.998 0-9.6-6.399-16.001-15.999-16.001zM213.332 917.333c-47.786 0-85.332-37.546-85.332-85.332 0-47.788 37.546-85.334 85.332-85.334 47.788 0 85.334 37.546 85.334 85.334 0 47.786-37.546 85.332-85.334 85.332zM213.332 704c-71.314 0-127.999 56.687-127.999 128.001s56.685 127.999 127.999 127.999c71.314 0 128.001-56.685 128.001-127.999s-56.687-128.001-128.001-128.001v0zM192.001 789.333c-12.8 0-21.335 8.535-21.335 21.335 0 36.264 27.734 63.999 63.999 63.999 12.8 0 21.335-8.535 21.335-21.335s-8.535-21.332-21.335-21.332c-12.8 0-21.332-8.532-21.332-21.332s-8.532-21.335-21.332-21.335zM789.334 704c-59.428 0-106.668-47.238-106.668-106.667s47.239-106.667 106.668-106.667c59.428 0 106.666 47.238 106.666 106.667s-47.237 106.667-106.666 106.667zM789.333 448c-82.964 0-149.333 66.37-149.333 149.333s66.37 149.333 149.333 149.333c82.962 0 149.333-66.37 149.333-149.333s-66.372-149.333-149.333-149.333v0zM739.555 576c-8.533 0-14.222 5.688-14.222 14.222 0 39.822 31.288 71.112 71.112 71.112 8.533 0 14.222-5.69 14.222-14.223s-5.688-14.222-14.222-14.222c-24.178 0-42.667-18.488-42.667-42.667 0-8.533-5.69-14.222-14.223-14.222zM666.257 661.333c-1.682 0-5.041 0-6.722 1.554l-351.178 139.934c-8.402 3.11-11.763 12.439-8.402 20.212 3.361 7.775 13.443 10.885 21.843 7.775l351.18-139.934c8.402-3.11 11.761-12.439 8.402-20.212-3.361-6.22-10.082-9.329-15.123-9.329zM406.649 226.918c-5.084-0.266-10.25 1.015-13.801 3.936-7.105 5.84-5.896 15.223 0.558 21.773l286.033 249.528c6.454 6.551 16.704 5.535 23.808-0.307 7.105-5.84 5.977-16.771-0.558-21.773l-286.114-247.978c-3.226-3.276-6.535-5.002-9.925-5.18zM496.852 212.837c-3.911-0.205-7.888 0.839-10.625 3.201-5.478 4.723-4.566 12.286 0.387 17.556l219.569 200.651c4.953 5.269 12.84 4.431 18.317-0.294 5.478-4.723 4.631-13.535-0.387-17.556l-219.635-199.401c-2.475-2.635-5.018-4.021-7.626-4.157zM387.529 311.613c-3.916 0.068-7.809 1.464-10.372 4.165-5.13 5.401-3.684 13.343 1.629 18.562l233.233 196.447c5.313 5.218 13.122 3.755 18.25-1.648 5.13-5.401 3.661-14.67-1.629-18.562l-233.21-195.119c-2.656-2.61-5.29-3.891-7.901-3.846z" />
<glyph unicode="&#xe915;" glyph-name="4" d="M277.333 277.333c-82.964 0-149.333-66.372-149.333-149.333 0-82.964 66.37-149.333 149.333-149.333 82.962 0 149.333 66.37 149.333 149.333s-66.372 149.333-149.333 149.333zM277.334-64c-106.474 0-192.001 85.527-192.001 192.001 0 106.472 85.527 191.999 192.001 191.999 106.472 0 191.999-85.527 191.999-191.999 0-106.474-85.527-192.001-191.999-192.001v0zM186.668 106.667c-9.6 0-16.001 6.401-16.001 16.001 0 62.4 49.601 111.999 112.001 111.999 9.6 0 15.999-6.399 15.999-15.999s-6.399-16.001-15.999-16.001c-44.801 0-80-35.199-80-79.998 0-9.6-6.399-16.001-15.999-16.001zM213.332 917.333c-47.786 0-85.332-37.546-85.332-85.332 0-47.788 37.546-85.334 85.332-85.334 47.788 0 85.334 37.546 85.334 85.334 0 47.786-37.546 85.332-85.334 85.332zM213.332 704c-71.314 0-127.999 56.687-127.999 128.001s56.685 127.999 127.999 127.999c71.314 0 128.001-56.685 128.001-127.999s-56.687-128.001-128.001-128.001v0zM192.001 789.333c-12.8 0-21.335 8.535-21.335 21.335 0 36.264 27.734 63.999 63.999 63.999 12.8 0 21.335-8.535 21.335-21.335s-8.535-21.332-21.335-21.332c-12.8 0-21.332-8.532-21.332-21.332s-8.532-21.335-21.332-21.335zM789.334 704c-59.428 0-106.668-47.238-106.668-106.667s47.239-106.667 106.668-106.667c59.428 0 106.666 47.238 106.666 106.667s-47.237 106.667-106.666 106.667zM789.333 448c-82.964 0-149.333 66.37-149.333 149.333s66.37 149.333 149.333 149.333c82.962 0 149.333-66.37 149.333-149.333s-66.372-149.333-149.333-149.333v0zM739.555 576c-8.533 0-14.222 5.688-14.222 14.222 0 39.822 31.288 71.112 71.112 71.112 8.533 0 14.222-5.69 14.222-14.223s-5.688-14.222-14.222-14.222c-24.178 0-42.667-18.488-42.667-42.667 0-8.533-5.69-14.222-14.223-14.222zM666.257 661.333c-1.682 0-5.041 0-6.722 1.554l-351.178 139.934c-8.402 3.11-11.763 12.439-8.402 20.212 3.361 7.775 13.443 10.885 21.843 7.775l351.18-139.934c8.402-3.11 11.761-12.439 8.402-20.212-3.361-6.22-10.082-9.329-15.123-9.329zM391.336 267.127c-5.084-0.266-10.25 1.015-13.801 3.936-7.105 5.84-5.896 15.223 0.558 21.773l286.033 249.528c6.454 6.551 16.704 5.535 23.808-0.307 7.105-5.84 5.977-16.771-0.558-21.773l-286.114-247.978c-3.226-3.276-6.535-5.002-9.925-5.18zM431.92 215.643c-5.084-0.266-10.25 1.015-13.801 3.936-7.105 5.84-5.896 15.223 0.558 21.773l286.033 249.528c6.454 6.551 16.704 5.535 23.808-0.307 7.105-5.84 5.977-16.771-0.558-21.773l-286.114-247.978c-3.226-3.276-6.535-5.002-9.925-5.18zM514.977 194.695c-3.911-0.205-7.888 0.839-10.625 3.201-5.478 4.723-4.566 12.286 0.387 17.556l219.569 200.651c4.953 5.269 12.84 4.431 18.317-0.294 5.478-4.723 4.631-13.535-0.387-17.556l-219.635-199.401c-2.475-2.635-5.018-4.021-7.626-4.157zM367.081 335.942c-3.917 0-7.833 1.327-10.443 3.983-5.223 5.31-3.917 13.277 1.305 18.587l229.769 200.488c5.222 5.31 13.055 3.983 18.276-1.329 5.223-5.31 3.917-14.604-1.305-18.587l-229.769-199.159c-2.61-2.656-5.222-3.983-7.833-3.983z" />
<glyph unicode="&#xe916;" glyph-name="12" d="M277.333 277.333c-82.964 0-149.333-66.372-149.333-149.333 0-82.964 66.37-149.333 149.333-149.333 82.962 0 149.333 66.37 149.333 149.333s-66.372 149.333-149.333 149.333zM277.334-64c-106.474 0-192.001 85.527-192.001 192.001 0 106.472 85.527 191.999 192.001 191.999 106.472 0 191.999-85.527 191.999-191.999 0-106.474-85.527-192.001-191.999-192.001v0zM186.668 106.667c-9.6 0-16.001 6.401-16.001 16.001 0 62.4 49.601 111.999 112.001 111.999 9.6 0 15.999-6.399 15.999-15.999s-6.399-16.001-15.999-16.001c-44.801 0-80-35.199-80-79.998 0-9.6-6.399-16.001-15.999-16.001zM213.332 917.333c-47.786 0-85.332-37.546-85.332-85.332 0-47.788 37.546-85.334 85.332-85.334 47.788 0 85.334 37.546 85.334 85.334 0 47.786-37.546 85.332-85.334 85.332zM213.332 704c-71.314 0-127.999 56.687-127.999 128.001s56.685 127.999 127.999 127.999c71.314 0 128.001-56.685 128.001-127.999s-56.687-128.001-128.001-128.001v0zM192.001 789.333c-12.8 0-21.335 8.535-21.335 21.335 0 36.264 27.734 63.999 63.999 63.999 12.8 0 21.335-8.535 21.335-21.335s-8.535-21.332-21.335-21.332c-12.8 0-21.332-8.532-21.332-21.332s-8.532-21.335-21.332-21.335zM789.334 704c-59.428 0-106.668-47.238-106.668-106.667s47.239-106.667 106.668-106.667c59.428 0 106.666 47.238 106.666 106.667s-47.237 106.667-106.666 106.667zM789.333 448c-82.964 0-149.333 66.37-149.333 149.333s66.37 149.333 149.333 149.333c82.962 0 149.333-66.37 149.333-149.333s-66.372-149.333-149.333-149.333v0zM739.555 576c-8.533 0-14.222 5.688-14.222 14.222 0 39.822 31.288 71.112 71.112 71.112 8.533 0 14.222-5.69 14.222-14.223s-5.688-14.222-14.222-14.222c-24.178 0-42.667-18.488-42.667-42.667 0-8.533-5.69-14.222-14.223-14.222zM666.257 661.333c-1.682 0-5.041 0-6.722 1.554l-351.178 139.934c-8.402 3.11-11.763 12.439-8.402 20.212 3.361 7.775 13.443 10.885 21.843 7.775l351.18-139.934c8.402-3.11 11.761-12.439 8.402-20.212-3.361-6.22-10.082-9.329-15.123-9.329z" />
<glyph unicode="&#xe917;" glyph-name="13" d="M277.333 277.333c-82.964 0-149.333-66.372-149.333-149.333 0-82.964 66.37-149.333 149.333-149.333 82.962 0 149.333 66.37 149.333 149.333s-66.372 149.333-149.333 149.333zM277.334-64c-106.474 0-192.001 85.527-192.001 192.001 0 106.472 85.527 191.999 192.001 191.999 106.472 0 191.999-85.527 191.999-191.999 0-106.474-85.527-192.001-191.999-192.001v0zM186.668 106.667c-9.6 0-16.001 6.401-16.001 16.001 0 62.4 49.601 111.999 112.001 111.999 9.6 0 15.999-6.399 15.999-15.999s-6.399-16.001-15.999-16.001c-44.801 0-80-35.199-80-79.998 0-9.6-6.399-16.001-15.999-16.001zM213.332 917.333c-47.786 0-85.332-37.546-85.332-85.332 0-47.788 37.546-85.334 85.332-85.334 47.788 0 85.334 37.546 85.334 85.334 0 47.786-37.546 85.332-85.334 85.332zM213.332 704c-71.314 0-127.999 56.687-127.999 128.001s56.685 127.999 127.999 127.999c71.314 0 128.001-56.685 128.001-127.999s-56.687-128.001-128.001-128.001v0zM192.001 789.333c-12.8 0-21.335 8.535-21.335 21.335 0 36.264 27.734 63.999 63.999 63.999 12.8 0 21.335-8.535 21.335-21.335s-8.535-21.332-21.335-21.332c-12.8 0-21.332-8.532-21.332-21.332s-8.532-21.335-21.332-21.335zM789.334 704c-59.428 0-106.668-47.238-106.668-106.667s47.239-106.667 106.668-106.667c59.428 0 106.666 47.238 106.666 106.667s-47.237 106.667-106.666 106.667zM789.333 448c-82.964 0-149.333 66.37-149.333 149.333s66.37 149.333 149.333 149.333c82.962 0 149.333-66.37 149.333-149.333s-66.372-149.333-149.333-149.333v0zM739.555 576c-8.533 0-14.222 5.688-14.222 14.222 0 39.822 31.288 71.112 71.112 71.112 8.533 0 14.222-5.69 14.222-14.223s-5.688-14.222-14.222-14.222c-24.178 0-42.667-18.488-42.667-42.667 0-8.533-5.69-14.222-14.223-14.222zM666.257 661.333c-1.682 0-5.041 0-6.722 1.554l-351.178 139.934c-8.402 3.11-11.763 12.439-8.402 20.212 3.361 7.775 13.443 10.885 21.843 7.775l351.18-139.934c8.402-3.11 11.761-12.439 8.402-20.212-3.361-6.22-10.082-9.329-15.123-9.329zM661.333 448l-161.727-200.857-83.831 86.81z" />
<glyph unicode="&#xe918;" glyph-name="14" d="M277.333 277.333c-82.964 0-149.333-66.372-149.333-149.333 0-82.964 66.37-149.333 149.333-149.333 82.962 0 149.333 66.37 149.333 149.333s-66.372 149.333-149.333 149.333zM277.334-64c-106.474 0-192.001 85.527-192.001 192.001 0 106.472 85.527 191.999 192.001 191.999 106.472 0 191.999-85.527 191.999-191.999 0-106.474-85.527-192.001-191.999-192.001v0zM186.668 106.667c-9.6 0-16.001 6.401-16.001 16.001 0 62.4 49.601 111.999 112.001 111.999 9.6 0 15.999-6.399 15.999-15.999s-6.399-16.001-15.999-16.001c-44.801 0-80-35.199-80-79.998 0-9.6-6.399-16.001-15.999-16.001zM213.332 917.333c-47.786 0-85.332-37.546-85.332-85.332 0-47.788 37.546-85.334 85.332-85.334 47.788 0 85.334 37.546 85.334 85.334 0 47.786-37.546 85.332-85.334 85.332zM213.332 704c-71.314 0-127.999 56.687-127.999 128.001s56.685 127.999 127.999 127.999c71.314 0 128.001-56.685 128.001-127.999s-56.687-128.001-128.001-128.001v0zM192.001 789.333c-12.8 0-21.335 8.535-21.335 21.335 0 36.264 27.734 63.999 63.999 63.999 12.8 0 21.335-8.535 21.335-21.335s-8.535-21.332-21.335-21.332c-12.8 0-21.332-8.532-21.332-21.332s-8.532-21.335-21.332-21.335zM789.334 704c-59.428 0-106.668-47.238-106.668-106.667s47.239-106.667 106.668-106.667c59.428 0 106.666 47.238 106.666 106.667s-47.237 106.667-106.666 106.667zM789.333 448c-82.964 0-149.333 66.37-149.333 149.333s66.37 149.333 149.333 149.333c82.962 0 149.333-66.37 149.333-149.333s-66.372-149.333-149.333-149.333v0zM739.555 576c-8.533 0-14.222 5.688-14.222 14.222 0 39.822 31.288 71.112 71.112 71.112 8.533 0 14.222-5.69 14.222-14.223s-5.688-14.222-14.222-14.222c-24.178 0-42.667-18.488-42.667-42.667 0-8.533-5.69-14.222-14.223-14.222zM666.257 661.333c-1.682 0-5.041 0-6.722 1.554l-351.178 139.934c-8.402 3.11-11.763 12.439-8.402 20.212 3.361 7.775 13.443 10.885 21.843 7.775l351.18-139.934c8.402-3.11 11.761-12.439 8.402-20.212-3.361-6.22-10.082-9.329-15.123-9.329zM623.106 437.783l10.667-10.667" />
<glyph unicode="&#xe919;" glyph-name="15" d="M277.333 277.333c-82.964 0-149.333-66.372-149.333-149.333 0-82.964 66.37-149.333 149.333-149.333 82.962 0 149.333 66.37 149.333 149.333s-66.372 149.333-149.333 149.333zM277.334-64c-106.474 0-192.001 85.527-192.001 192.001 0 106.472 85.527 191.999 192.001 191.999 106.472 0 191.999-85.527 191.999-191.999 0-106.474-85.527-192.001-191.999-192.001v0zM186.668 106.667c-9.6 0-16.001 6.401-16.001 16.001 0 62.4 49.601 111.999 112.001 111.999 9.6 0 15.999-6.399 15.999-15.999s-6.399-16.001-15.999-16.001c-44.801 0-80-35.199-80-79.998 0-9.6-6.399-16.001-15.999-16.001zM213.332 917.333c-47.786 0-85.332-37.546-85.332-85.332 0-47.788 37.546-85.334 85.332-85.334 47.788 0 85.334 37.546 85.334 85.334 0 47.786-37.546 85.332-85.334 85.332zM213.332 704c-71.314 0-127.999 56.687-127.999 128.001s56.685 127.999 127.999 127.999c71.314 0 128.001-56.685 128.001-127.999s-56.687-128.001-128.001-128.001v0zM192.001 789.333c-12.8 0-21.335 8.535-21.335 21.335 0 36.264 27.734 63.999 63.999 63.999 12.8 0 21.335-8.535 21.335-21.335s-8.535-21.332-21.335-21.332c-12.8 0-21.332-8.532-21.332-21.332s-8.532-21.335-21.332-21.335zM789.334 704c-59.428 0-106.668-47.238-106.668-106.667s47.239-106.667 106.668-106.667c59.428 0 106.666 47.238 106.666 106.667s-47.237 106.667-106.666 106.667zM789.333 448c-82.964 0-149.333 66.37-149.333 149.333s66.37 149.333 149.333 149.333c82.962 0 149.333-66.37 149.333-149.333s-66.372-149.333-149.333-149.333v0zM739.555 576c-8.533 0-14.222 5.688-14.222 14.222 0 39.822 31.288 71.112 71.112 71.112 8.533 0 14.222-5.69 14.222-14.223s-5.688-14.222-14.222-14.222c-24.178 0-42.667-18.488-42.667-42.667 0-8.533-5.69-14.222-14.223-14.222zM666.257 661.333c-1.682 0-5.041 0-6.722 1.554l-351.178 139.934c-8.402 3.11-11.763 12.439-8.402 20.212 3.361 7.775 13.443 10.885 21.843 7.775l351.18-139.934c8.402-3.11 11.761-12.439 8.402-20.212-3.361-6.22-10.082-9.329-15.123-9.329z" />
<glyph unicode="&#xe91a;" glyph-name="16" d="M364.497 430.159c-8.059-0.99-14.093 3.724-15.082 11.784-6.432 52.384 30.095 99.136 82.48 105.568 8.059 0.99 14.091-3.723 15.081-11.782s-3.723-14.093-11.782-15.082c-37.61-4.618-63.532-37.796-58.914-75.405 0.99-8.059-3.723-14.093-11.782-15.082z" />
<glyph unicode="&#xe91b;" glyph-name="17" d="M469.248 415.696c-6.332-0.777-11.073 2.926-11.85 9.259-5.054 41.159 23.646 77.892 64.806 82.946 6.332 0.777 11.072-2.925 11.849-9.257s-2.925-11.073-9.257-11.85c-29.551-3.628-49.918-29.697-46.29-59.247 0.777-6.332-2.925-11.073-9.257-11.85z" />
<glyph unicode="&#xe91c;" glyph-name="18" d="M448.701 433.463c-6.567-0.806-11.483 3.035-12.289 9.601-5.241 42.684 24.522 80.777 67.206 86.018 6.567 0.806 11.482-3.034 12.288-9.6s-3.033-11.483-9.6-12.289c-30.646-3.763-51.767-30.797-48.004-61.441 0.806-6.567-3.033-11.483-9.6-12.289z" />
<glyph unicode="&#xe91d;" glyph-name="19" d="M504.789 431.646c-7.388-0.907-12.918 3.414-13.825 10.802-5.896 48.019 27.587 90.874 75.607 96.77 7.388 0.907 12.917-3.413 13.824-10.8s-3.413-12.918-10.8-13.825c-34.476-4.233-58.238-34.646-54.005-69.121 0.907-7.388-3.413-12.918-10.8-13.825z" />
<glyph unicode="&#xe91e;" glyph-name="110" d="M430.616 380.548c-8.443-1.037-14.764 3.902-15.801 12.345-6.738 54.879 31.529 103.856 86.408 110.595 8.443 1.037 14.762-3.9 15.799-12.343s-3.9-14.764-12.343-15.8c-39.401-4.838-66.557-39.596-61.72-78.995 1.037-8.443-3.9-14.764-12.343-15.8z" />
<glyph unicode="&#xe91f;" glyph-name="111" d="M448.701 433.463c-6.567-0.806-11.483 3.035-12.289 9.601-5.241 42.684 24.522 80.777 67.206 86.018 6.567 0.806 11.482-3.034 12.288-9.6s-3.033-11.483-9.6-12.289c-30.646-3.763-51.767-30.797-48.004-61.441 0.806-6.567-3.033-11.483-9.6-12.289z" />
<glyph unicode="&#xe920;" glyph-name="112" d="M465.959 432.904c-6.819-0.837-11.925 3.151-12.762 9.971-5.442 44.325 25.465 83.884 69.791 89.326 6.819 0.837 11.923-3.15 12.76-9.97s-3.15-11.925-9.969-12.762c-31.824-3.908-53.758-31.981-49.85-63.804 0.837-6.819-3.15-11.925-9.969-12.762z" />
<glyph unicode="&#xe921;" glyph-name="113" d="M448.701 433.463c-6.567-0.806-11.483 3.035-12.289 9.601-5.241 42.684 24.522 80.777 67.206 86.018 6.567 0.806 11.482-3.034 12.288-9.6s-3.033-11.483-9.6-12.289c-30.646-3.763-51.767-30.797-48.004-61.441 0.806-6.567-3.033-11.483-9.6-12.289z" />
<glyph unicode="&#xe922;" glyph-name="114" horiz-adv-x="759" d="M296.998 433.463c-6.567-0.806-11.483 3.035-12.289 9.601-5.241 42.684 24.522 80.777 67.206 86.018 6.567 0.806 11.482-3.034 12.288-9.6s-3.033-11.483-9.6-12.289c-30.646-3.763-51.767-30.797-48.004-61.441 0.806-6.567-3.033-11.483-9.6-12.289z" />
<glyph unicode="&#xe923;" glyph-name="115" d="M448.701 433.463c-6.567-0.806-11.483 3.035-12.289 9.601-5.241 42.684 24.522 80.777 67.206 86.018 6.567 0.806 11.482-3.034 12.288-9.6s-3.033-11.483-9.6-12.289c-30.646-3.763-51.767-30.797-48.004-61.441 0.806-6.567-3.033-11.483-9.6-12.289z" />
<glyph unicode="&#xe924;" glyph-name="116" d="M524.888 647.112c-132.223 0-252.696-56.037-344.926-147.912l-179.962 204.8v-512h449.904l-180.711 205.653c69.236 66.275 157.965 107.235 255.695 107.235 177.213 0 327.181-131.128 379.67-312.888l118.224 44.373c-68.735 238.365-265.443 410.739-497.894 410.739z" />
<glyph unicode="&#xe925;" glyph-name="117" d="M499.112 647.112c132.223 0 252.696-56.037 344.926-147.912l179.962 204.8v-512h-449.904l180.711 205.653c-69.236 66.275-157.965 107.235-255.695 107.235-177.213 0-327.181-131.128-379.67-312.888l-118.224 44.373c68.735 238.365 265.443 410.739 497.894 410.739z" />
<glyph unicode="&#xe926;" glyph-name="118" d="M505.979 114.773c8.842 0 16.024 7.314 16.024 16.274v536.34c0 9.062-7.182 16.274-16.024 16.274-8.822 0-16.024-7.213-16.024-16.274v-536.34c0-8.96 7.202-16.274 16.024-16.274zM345.939 114.773c8.842 0 16.024 7.314 16.024 16.274v536.34c0 9.062-7.182 16.274-16.024 16.274-8.822 0-16.024-7.213-16.024-16.274v-536.34c0-8.96 7.202-16.274 16.024-16.274zM666.018 114.773c8.842 0 16.024 7.314 16.024 16.274v536.34c0 9.062-7.182 16.274-16.024 16.274-8.822 0-16.024-7.213-16.024-16.274v-536.34c0-8.96 7.202-16.274 16.024-16.274zM874.128 846.202h-224.835c-1.72 20.317-7.882 54.613-28.987 76.597-13.363 13.877-30.247 20.947-50.332 20.947h-160.039c-20.005 0-36.949-7.070-50.232-20.947-21.105-21.983-27.287-56.279-29.067-76.597h-192.707c-8.842 0-16.024-7.213-16.024-16.274 0-8.96 7.182-16.173 16.024-16.173h32.668l30.627-748.109c0.62-27.937 17.744-80.863 78.539-80.863h452.45c60.795 0 77.979 52.927 78.539 80.559l30.707 748.414h32.668c8.822 0 15.924 7.213 15.924 16.173 0 9.062-7.102 16.274-15.924 16.274zM382.668 900.165c7.122 7.477 16.104 11.032 27.267 11.032h160.039c11.263 0 20.165-3.556 27.367-11.032 12.883-13.41 18.044-36.897 19.845-53.963h-254.362c1.8 17.067 6.962 40.554 19.845 53.963zM778.785 66.357c-0.080-4.998-2.341-49.128-46.571-49.128h-452.45c-43.771 0-46.351 44.211-46.591 49.453l-30.547 747.073h606.788l-30.627-747.398z" />
<glyph unicode="&#xe927;" glyph-name="119" d="M934.98 472.662h-342.734c-14.205 0-25.704-11.499-25.704-25.704 0-14.213 11.499-25.498 25.704-25.498h342.734l-87.152-87.144c-10.031-10.031-10.031-26.122 0-36.153 5.018-5.018 11.499-7.518 18.184-7.518 6.682 0 13.163 2.5 18.181 7.518l130.819 130.819c10.028 10.028 10.028 26.122 0 36.151l-130.819 130.826c-10.028 10.031-26.122 10.031-36.151 0-10.031-10.028-10.031-26.122 0-36.151l86.938-87.144zM138.347 298.162c5.010-5.018 11.489-7.518 18.184-7.518 6.682 0 13.163 2.5 18.173 7.518 10.031 10.031 10.031 26.122 0 36.153l-87.142 87.144h342.724c14.213 0 25.704 11.489 25.704 25.498 0 14.002-11.491 25.704-25.704 25.704h-342.724l86.938 87.144c10.031 10.028 10.031 26.122 0 36.151-10.031 10.031-26.122 10.031-36.153 0l-130.826-130.826c-10.031-10.028-10.031-26.122 0-36.151l130.826-130.819zM398.315 783.621l87.144 87.144v-342.727c0-14.213 11.489-25.702 25.704-25.702 14.213 0 25.704 11.489 25.704 25.702v342.727l87.142-87.144c5.021-5.021 11.499-7.521 18.184-7.521 6.682 0 13.163 2.5 18.184 7.521 10.031 10.031 10.031 26.122 0 36.153l-130.826 130.816c-9.613 9.624-26.54 9.624-36.153 0l-130.816-130.816c-10.031-10.031-10.031-26.122 0-36.153 9.61-10.031 25.908-10.031 35.733 0zM511.164 391.784c-14.216 0-25.704-11.489-25.704-25.704v-342.724l-87.144 87.144c-10.028 10.028-26.122 10.028-36.151 0-10.031-10.031-10.031-26.122 0-36.153l130.816-130.826c4.807-4.807 11.285-7.521 18.184-7.521 6.682 0 13.377 2.714 18.184 7.521l130.816 130.826c10.031 10.031 10.031 26.122 0 36.153-10.031 10.028-26.122 10.028-36.153 0l-87.142-87.144v342.724c-0.206 14.216-11.491 25.704-25.704 25.704z" />
<glyph unicode="&#xe928;" glyph-name="120" d="M896 832h64v64h-64v-64zM896 416h64v64h-64v-64zM896 0h64v64h-64v-64zM832 96v-32h-224v32c0 17.674-14.326 32-32 32h-128c-17.674 0-32-14.326-32-32v-32h-224v32c0 17.674-14.326 32-32 32h-32v224h32c17.674 0 32 14.326 32 32v128c0 17.674-14.326 32-32 32h-32v224h32c17.674 0 32 14.326 32 32v32h224v-32c0-17.674 14.326-32 32-32h128c17.674 0 32 14.326 32 32v32h224v-32c0-17.674 14.326-32 32-32h32v-224h-32c-17.674 0-32-14.326-32-32v-128c0-17.674 14.326-32 32-32h32v-224h-32c-17.674 0-32-14.326-32-32zM480 0h64v64h-64v-64zM64 0h64v64h-64v-64zM64 416h64v64h-64v-64zM64 832h64v64h-64v-64zM480 832h64v64h-64v-64zM992 768c17.674 0 32 14.326 32 32v128c0 17.674-14.326 32-32 32h-128c-17.674 0-32-14.326-32-32v-32h-224v32c0 17.674-14.326 32-32 32h-128c-17.674 0-32-14.326-32-32v-32h-224v32c0 17.674-14.326 32-32 32h-128c-17.674 0-32-14.326-32-32v-128c0-17.674 14.326-32 32-32h32v-224h-32c-17.674 0-32-14.326-32-32v-128c0-17.674 14.326-32 32-32h32v-224h-32c-17.674 0-32-14.326-32-32v-128c0-17.674 14.326-32 32-32h128c17.674 0 32 14.326 32 32v32h224v-32c0-17.674 14.326-32 32-32h128c17.674 0 32 14.326 32 32v32h224v-32c0-17.674 14.326-32 32-32h128c17.674 0 32 14.326 32 32v128c0 17.674-14.326 32-32 32h-32v224h32c17.674 0 32 14.326 32 32v128c0 17.674-14.326 32-32 32h-32v224h32zM544 576h-64v-96h-96v-64h96v-96h64v96h96v64h-96v96z" />
<glyph unicode="&#xe929;" glyph-name="121" d="M896 832h64v64h-64v-64zM896 416h64v64h-64v-64zM896 0h64v64h-64v-64zM832 96v-32h-224v32c0 17.674-14.326 32-32 32h-128c-17.674 0-32-14.326-32-32v-32h-224v32c0 17.674-14.326 32-32 32h-32v224h32c17.674 0 32 14.326 32 32v128c0 17.674-14.326 32-32 32h-32v224h32c17.674 0 32 14.326 32 32v32h224v-32c0-17.674 14.326-32 32-32h128c17.674 0 32 14.326 32 32v32h224v-32c0-17.674 14.326-32 32-32h32v-224h-32c-17.674 0-32-14.326-32-32v-128c0-17.674 14.326-32 32-32h32v-224h-32c-17.674 0-32-14.326-32-32zM480 0h64v64h-64v-64zM64 0h64v64h-64v-64zM64 416h64v64h-64v-64zM64 832h64v64h-64v-64zM480 832h64v64h-64v-64zM992 768c17.674 0 32 14.326 32 32v128c0 17.674-14.326 32-32 32h-128c-17.674 0-32-14.326-32-32v-32h-224v32c0 17.674-14.326 32-32 32h-128c-17.674 0-32-14.326-32-32v-32h-224v32c0 17.674-14.326 32-32 32h-128c-17.674 0-32-14.326-32-32v-128c0-17.674 14.326-32 32-32h32v-224h-32c-17.674 0-32-14.326-32-32v-128c0-17.674 14.326-32 32-32h32v-224h-32c-17.674 0-32-14.326-32-32v-128c0-17.674 14.326-32 32-32h128c17.674 0 32 14.326 32 32v32h224v-32c0-17.674 14.326-32 32-32h128c17.674 0 32 14.326 32 32v32h224v-32c0-17.674 14.326-32 32-32h128c17.674 0 32 14.326 32 32v128c0 17.674-14.326 32-32 32h-32v224h32c17.674 0 32 14.326 32 32v128c0 17.674-14.326 32-32 32h-32v224h32zM670.392 543.035l-63.357 63.357-95.035-95.035-95.035 95.035-63.357-63.357 95.035-95.035-95.035-95.035 63.357-63.357 95.035 95.035 95.035-95.035 63.357 63.357-95.035 95.035 95.035 95.035z" />
<glyph unicode="&#xe92a;" glyph-name="122" horiz-adv-x="709" d="M48.857 611.923c-12.63-12.907-12.63-34.294 0-47.651 12.238-12.87 32.517-12.87 44.756 0l229.008 241.558v-797.015c0-18.61 14.053-33.431 31.699-33.431 17.504 0 32.090 14.821 32.090 33.431v797.015l228.474-241.558c12.665-12.87 33.086-12.87 45.183 0 12.63 13.357 12.63 34.744 0 47.651l-283.227 298.702c-12.238 13.32-32.517 13.32-44.613 0l-283.369-298.702z" />
<glyph unicode="&#xe92b;" glyph-name="22" horiz-adv-x="709" d="M48.857 284.077c-12.63 12.907-12.63 34.294 0 47.651 12.238 12.87 32.517 12.87 44.756 0l229.008-241.558v797.015c0 18.61 14.053 33.431 31.699 33.431 17.504 0 32.090-14.821 32.090-33.431v-797.015l228.474 241.558c12.665 12.87 33.086 12.87 45.183 0 12.63-13.357 12.63-34.744 0-47.651l-283.227-298.702c-12.238-13.32-32.517-13.32-44.613 0l-283.369 298.702z" />
<glyph unicode="&#xe92c;" glyph-name="123" horiz-adv-x="709" d="M88.922 497.673c-12.63-10.776-12.63-28.63 0-39.782 12.238-10.744 32.517-10.744 44.756 0l189.623 201.666v-665.391c0-15.537 14.053-27.91 31.699-27.91 17.504 0 32.090 12.373 32.090 27.91v665.391l189.090-201.666c12.665-10.744 33.086-10.744 45.183 0 12.63 11.151 12.63 29.006 0 39.782l-243.842 249.373c-12.238 11.12-32.517 11.12-44.613 0l-243.984-249.373zM330.55 917.204l-294.565-294.66c-12.9-12.928-12.9-33.878 0-46.847 12.887-12.924 33.837-12.924 46.738 0l271.199 271.291 271.182-271.25c12.9-12.928 33.851-12.928 46.779 0 12.9 12.928 12.9 33.905 0 46.833l-294.568 294.67c-12.754 12.73-34.035 12.73-46.765-0.037z" />
<glyph unicode="&#xe92d;" glyph-name="124" horiz-adv-x="709" d="M88.922 398.327c-12.63 10.776-12.63 28.63 0 39.782 12.238 10.744 32.517 10.744 44.756 0l189.623-201.666v665.391c0 15.537 14.053 27.91 31.699 27.91 17.504 0 32.090-12.373 32.090-27.91v-665.391l189.090 201.666c12.665 10.744 33.086 10.744 45.183 0 12.63-11.151 12.63-29.006 0-39.782l-243.842-249.373c-12.238-11.12-32.517-11.12-44.613 0l-243.984 249.373zM330.55-21.204l-294.565 294.66c-12.9 12.928-12.9 33.878 0 46.847 12.887 12.924 33.837 12.924 46.738 0l271.199-271.291 271.182 271.25c12.9 12.928 33.851 12.928 46.779 0 12.9-12.928 12.9-33.905 0-46.833l-294.568-294.67c-12.754-12.73-34.035-12.73-46.765 0.037z" />
<glyph unicode="&#xe92e;" glyph-name="125" horiz-adv-x="696" d="M25.2 553.681c-13.135-11.851-13.135-31.488 0-43.753 12.728-11.817 33.818-11.817 46.546 0l238.168 221.797v-731.815c0-17.088 14.615-30.696 32.967-30.696 18.204 0 33.374 13.608 33.374 30.696v731.815l237.613-221.797c13.172-11.817 34.41-11.817 46.99 0 13.135 12.265 13.135 31.902 0 43.753l-294.556 274.267c-12.728 12.23-33.818 12.23-46.398 0l-294.704-274.267z" />
<glyph unicode="&#xe92f;" glyph-name="126" horiz-adv-x="696" d="M25.2 342.319c-13.135 11.851-13.135 31.488 0 43.753 12.728 11.817 33.818 11.817 46.546 0l238.168-221.797v731.815c0 17.088 14.615 30.696 32.967 30.696 18.204 0 33.374-13.608 33.374-30.696v-731.815l237.613 221.797c13.172 11.817 34.41 11.817 46.99 0 13.135-12.265 13.135-31.902 0-43.753l-294.556-274.267c-12.728-12.23-33.818-12.23-46.398 0l-294.704 274.267z" />
<glyph unicode="&#xe930;" glyph-name="127" horiz-adv-x="1365" d="M899.713 889.429c-17.090 18.243-45.408 18.243-63.094 0-17.040-17.678-17.040-46.969 0-64.647l319.841-330.789h-1055.306c-24.641 0-44.265-20.299-44.265-45.787 0-25.283 19.624-46.353 44.265-46.353h1055.306l-319.841-330.018c-17.040-18.294-17.040-47.791 0-65.264 17.686-18.243 46.004-18.243 63.094 0l395.504 409.105c17.636 17.678 17.636 46.969 0 64.441l-395.504 409.311z" />
<glyph unicode="&#xe931;" glyph-name="128" horiz-adv-x="1365" d="M465.62 889.429c17.090 18.243 45.408 18.243 63.094 0 17.040-17.678 17.040-46.969 0-64.647l-319.841-330.789h1055.306c24.641 0 44.265-20.299 44.265-45.787 0-25.283-19.624-46.353-44.265-46.353h-1055.306l319.841-330.018c17.040-18.294 17.040-47.791 0-65.264-17.686-18.243-46.004-18.243-63.094 0l-395.504 409.105c-17.636 17.678-17.636 46.969 0 64.441l395.504 409.311z" />
<glyph unicode="&#xe932;" glyph-name="129" horiz-adv-x="1422" d="M787.454 816.97c-15.613 17.626-41.483 17.626-57.64 0-15.567-17.080-15.567-45.381 0-62.461l292.194-264.638h-964.087c-22.511 0-40.439-19.612-40.439-44.239 0-24.428 17.927-44.785 40.439-44.785h964.087l-292.194-263.893c-15.567-17.676-15.567-46.175 0-63.057 16.157-17.626 42.027-17.626 57.64 0l361.317 340.306c16.112 17.080 16.112 45.381 0 62.262l-361.317 340.504zM1374.762 479.818l-426.934 411.094c-18.731 18.004-49.086 18.004-67.876 0-18.726-17.985-18.726-47.223 0-65.227l393.075-378.486-393.016-378.462c-18.731-18.004-18.731-47.242 0-65.284 18.731-18.004 49.126-18.004 67.856 0l426.949 411.099c18.445 17.8 18.445 47.499-0.054 65.265z" />
<glyph unicode="&#xe933;" glyph-name="130" horiz-adv-x="1479" d="M666.373 69.297c15.613-17.626 41.483-17.626 57.64 0 15.567 17.080 15.567 45.381 0 62.461l-292.194 264.638h964.087c22.511 0 40.439 19.612 40.439 44.239 0 24.428-17.927 44.785-40.439 44.785h-964.087l292.194 263.893c15.567 17.676 15.567 46.175 0 63.057-16.157 17.626-42.027 17.626-57.64 0l-361.317-340.306c-16.112-17.080-16.112-45.381 0-62.262l361.317-340.504zM79.066 406.45l426.934-411.094c18.731-18.004 49.086-18.004 67.876 0 18.726 17.985 18.726 47.223 0 65.227l-393.075 378.486 393.016 378.462c18.731 18.004 18.731 47.242 0 65.284-18.731 18.004-49.126 18.004-67.856 0l-426.949-411.099c-18.445-17.8-18.445-47.499 0.054-65.265z" />
<glyph unicode="&#xe934;" glyph-name="131" horiz-adv-x="1506" d="M908.354 922.941c-17.428 19.316-46.307 19.316-64.343 0-17.378-18.718-17.378-49.732 0-68.45l326.173-350.247h-1076.198c-25.129 0-45.141-21.493-45.141-48.481 0-26.77 20.012-49.079 45.141-49.079h1076.198l-326.173-349.431c-17.378-19.371-17.378-50.603 0-69.103 18.036-19.316 46.915-19.316 64.343 0l403.334 433.17c17.986 18.718 17.986 49.732 0 68.232l-403.334 433.388z" />
<glyph unicode="&#xe935;" glyph-name="132" horiz-adv-x="1506" d="M597.529 922.941c17.428 19.316 46.307 19.316 64.343 0 17.378-18.718 17.378-49.732 0-68.45l-326.173-350.247h1076.198c25.129 0 45.141-21.493 45.141-48.481 0-26.77-20.012-49.079-45.141-49.079h-1076.198l326.173-349.431c17.378-19.371 17.378-50.603 0-69.103-18.036-19.316-46.915-19.316-64.343 0l-403.334 433.17c-17.986 18.718-17.986 49.732 0 68.232l403.334 433.388z" />
<glyph unicode="&#xe936;" glyph-name="133" horiz-adv-x="1229" d="M998.819 462.485c-13.666 3.65-27.702-4.471-31.349-18.124-3.65-13.666 4.471-27.702 18.124-31.352 117.413-31.367 190.837-78.566 191.615-123.161 0.57-32.645-38.498-69.169-107.205-100.2-75.579-34.147-183.191-60.041-303.135-72.95l-105.222-0.412c-13.972-0.244-25.202-11.68-25.143-25.694 0.045-14.139 11.558-25.562 25.697-25.504l106.534 0.423c0.765 0.013 1.525 0.065 2.273 0.139 125.737 13.422 239.4 40.885 320.075 77.335 114.726 51.834 137.995 108.963 137.317 147.757-1.248 71.516-82.789 132.515-229.583 171.744zM467.949 221.819c-9.31 10.639-25.494 11.694-36.121 2.381-10.639-9.326-11.694-25.494-2.384-36.121l58.424-66.68c-120.955 7.103-230.762 27.327-311.755 57.669-79.569 29.803-125.565 67.144-126.182 102.463-0.716 40.995 59.266 86.235 160.45 121.030 13.371 4.599 20.494 19.161 15.899 32.535-4.599 13.359-19.173 20.478-32.535 15.883-58.868-20.243-105.41-43.894-138.355-70.336-38.207-30.671-57.273-64.325-56.65-100.006 1.032-59.14 56.154-110.835 159.408-149.516 83.924-31.427 196.099-52.573 319.128-60.376l-50.067-57.471c-9.278-10.663-8.17-26.835 2.493-36.112 4.963-4.34 11.137-6.405 17.249-6.298 6.988 0.122 13.913 3.091 18.864 8.779l91.333 104.848c4.167 4.774 6.412 10.926 6.301 17.261l-0.034 1.952c-0.106 6.047-2.358 11.871-6.352 16.429l-89.113 101.686z" />
<glyph unicode="&#xe937;" glyph-name="134" horiz-adv-x="1229" d="M1002.25 461.274c-13.6 3.888-27.776-3.987-31.661-17.574-3.888-13.6 3.987-27.776 17.574-31.664 116.848-33.411 189.437-81.885 189.437-126.486 0-32.65-39.699-68.486-108.938-98.314-76.163-32.822-184.211-56.835-304.362-67.648l-105.213 1.424c-13.974 0-25.402-11.238-25.587-25.251-0.202-14.138 11.11-25.76 25.248-25.949l106.525-1.437c0.765 0 1.526 0.038 2.275 0.099 125.952 11.226 240.077 36.701 321.376 71.738 115.613 49.824 139.875 106.538 139.875 145.338 0 71.526-80.464 133.939-226.55 175.725zM468.112 218.55c-9.123 10.8-25.286 12.138-36.074 3.011-10.8-9.139-12.138-25.286-3.014-36.074l57.251-67.69c-120.813 9.213-230.25 31.35-310.701 63.101-79.037 31.187-124.374 69.325-124.374 104.65 0 41.002 60.762 85.187 162.538 118.211 13.45 4.365 20.826 18.8 16.464 32.253-4.365 13.437-18.813 20.81-32.253 16.448-59.213-19.213-106.16-42.048-139.562-67.91-38.736-30-58.387-63.315-58.387-99.002 0-59.149 54.211-111.798 156.774-152.275 83.363-32.886 195.152-55.987 318.026-65.936l-51.062-56.589c-9.462-10.499-8.637-26.688 1.862-36.15 4.886-4.426 11.024-6.598 17.136-6.598 6.989 0 13.965 2.848 19.014 8.448l93.149 103.238c4.25 4.701 6.602 10.813 6.602 17.149v1.952c0 6.048-2.15 11.91-6.064 16.538l-87.325 103.226z" />
<glyph unicode="&#xe938;" glyph-name="135" horiz-adv-x="1170" d="M954.523 436.261c-12.952 3.703-26.453-3.797-30.153-16.738-3.703-12.952 3.797-26.453 16.738-30.156 111.284-31.82 180.416-77.986 180.416-120.463 0-31.095-37.809-65.225-103.75-93.632-72.536-31.259-175.439-54.129-289.868-64.427l-100.203 1.356c-13.309 0-24.192-10.703-24.369-24.049-0.192-13.464 10.581-24.533 24.046-24.713l101.452-1.368c0.728 0 1.454 0.037 2.167 0.094 119.954 10.691 228.645 34.953 306.072 68.322 110.107 47.451 133.214 101.464 133.214 138.417 0 68.12-76.632 127.561-215.762 167.357zM445.821 205.096c-8.689 10.286-24.082 11.56-34.356 2.868-10.286-8.704-11.56-24.082-2.871-34.356l54.525-64.466c-115.060 8.774-219.285 29.858-295.906 60.096-75.273 29.702-118.452 66.024-118.452 99.666 0 39.049 57.868 81.131 154.798 112.582 12.809 4.157 19.834 17.905 15.68 30.717-4.157 12.797-17.917 19.819-30.717 15.665-56.393-18.298-101.105-40.046-132.916-64.677-36.891-28.571-55.607-60.3-55.607-94.287 0-56.332 51.63-106.475 149.309-145.024 79.394-31.32 185.859-53.321 302.882-62.796l-48.631-53.894c-9.012-9.999-8.226-25.417 1.774-34.429 4.654-4.215 10.499-6.284 16.32-6.284 6.656 0 13.3 2.712 18.109 8.046l88.713 98.322c4.047 4.477 6.287 10.298 6.287 16.332v1.859c0 5.76-2.048 11.343-5.775 15.75l-83.166 98.31z" />
<glyph unicode="&#xe939;" glyph-name="136" horiz-adv-x="1170" d="M954.523 436.261c-12.952 3.703-26.453-3.797-30.153-16.738-3.703-12.952 3.797-26.453 16.738-30.156 111.284-31.82 180.416-77.986 180.416-120.463 0-31.095-37.809-65.225-103.75-93.632-72.536-31.259-175.439-54.129-289.868-64.427l-100.203 1.356c-13.309 0-24.192-10.703-24.369-24.049-0.192-13.464 10.581-24.533 24.046-24.713l101.452-1.368c0.728 0 1.454 0.037 2.167 0.094 119.954 10.691 228.645 34.953 306.072 68.322 110.107 47.451 133.214 101.464 133.214 138.417 0 68.12-76.632 127.561-215.762 167.357zM445.821 205.096c-8.689 10.286-24.082 11.56-34.356 2.868-10.286-8.704-11.56-24.082-2.871-34.356l54.525-64.466c-115.060 8.774-219.285 29.858-295.906 60.096-75.273 29.702-118.452 66.024-118.452 99.666 0 39.049 57.868 81.131 154.798 112.582 12.809 4.157 19.834 17.905 15.68 30.717-4.157 12.797-17.917 19.819-30.717 15.665-56.393-18.298-101.105-40.046-132.916-64.677-36.891-28.571-55.607-60.3-55.607-94.287 0-56.332 51.63-106.475 149.309-145.024 79.394-31.32 185.859-53.321 302.882-62.796l-48.631-53.894c-9.012-9.999-8.226-25.417 1.774-34.429 4.654-4.215 10.499-6.284 16.32-6.284 6.656 0 13.3 2.712 18.109 8.046l88.713 98.322c4.047 4.477 6.287 10.298 6.287 16.332v1.859c0 5.76-2.048 11.343-5.775 15.75l-83.166 98.31z" />
<glyph unicode="&#xe93a;" glyph-name="137" d="M644.669 387.809l301.079-313.028c13.209-13.709 34.616-13.709 47.867 0 13.206 13.694 13.206 35.958 0 49.667l-277.201 288.198 277.16 288.18c13.209 13.709 13.209 35.973 0 49.711-13.209 13.709-34.644 13.709-47.853 0l-301.090-313.032c-13.008-13.554-13.008-36.168 0.038-49.696zM385.902 387.809l-301.079-313.028c-13.209-13.709-34.616-13.709-47.867 0-13.206 13.694-13.206 35.958 0 49.667l277.201 288.198-277.16 288.18c-13.209 13.709-13.209 35.973 0 49.711 13.209 13.709 34.644 13.709 47.853 0l301.090-313.032c13.008-13.554 13.008-36.168-0.038-49.696z" />
<glyph unicode="&#xe93b;" glyph-name="138" horiz-adv-x="1062" d="M382.897 835.275c0.308 9.437-7.256 17.001-16.852 16.852-9.273-0.17-17.097-7.994-17.267-17.267l-2.924-173.783-281.872 281.872c-6.582 6.582-17.245 6.401-24.053-0.407-6.753-6.753-7.139-17.622-0.558-24.204l281.872-281.872-173.577-2.718c-9.438-0.335-17.317-8.214-17.432-17.432-0.149-9.597 7.415-17.16 16.852-16.852l214.911 3.633c9.432 0.011 17.256 7.835 17.212 17.212l3.688 214.966zM382.897 70.669c0.308-9.437-7.256-17.001-16.852-16.852-9.273 0.17-17.097 7.994-17.267 17.267l-2.924 173.783-281.872-281.872c-6.582-6.582-17.245-6.401-24.053 0.407-6.753 6.753-7.139 17.622-0.558 24.204l281.872 281.872-173.577 2.718c-9.438 0.335-17.317 8.214-17.432 17.432-0.149 9.597 7.415 17.16 16.852 16.852l214.911-3.633c9.432-0.011 17.256-7.835 17.212-17.212l3.688-214.966zM679.029 835.275c-0.308 9.437 7.256 17.001 16.852 16.852 9.273-0.17 17.097-7.994 17.267-17.267l2.924-173.783 281.872 281.872c6.582 6.582 17.245 6.401 24.053-0.407 6.753-6.753 7.139-17.622 0.558-24.204l-281.872-281.872 173.577-2.718c9.438-0.335 17.317-8.214 17.432-17.432 0.149-9.597-7.415-17.16-16.852-16.852l-214.911 3.633c-9.432 0.011-17.256 7.835-17.212 17.212l-3.688 214.966zM679.029 70.669c-0.308-9.437 7.256-17.001 16.852-16.852 9.273 0.17 17.097 7.994 17.267 17.267l2.924 173.783 281.872-281.872c6.582-6.582 17.245-6.401 24.053 0.407 6.753 6.753 7.139 17.622 0.558 24.204l-281.872 281.872 173.577 2.718c9.438 0.335 17.317 8.214 17.432 17.432 0.149 9.597-7.415 17.16-16.852 16.852l-214.911-3.633c-9.432-0.011-17.256-7.835-17.212-17.212l-3.688-214.966z" />
<glyph unicode="&#xe93c;" glyph-name="139" horiz-adv-x="1164" d="M957.681 413.521c-12.364 3.535-25.251-3.625-28.783-15.977-3.535-12.364 3.625-25.251 15.977-28.785 106.225-30.374 172.215-74.441 172.215-114.988 0-29.681-36.090-62.26-99.034-89.376-69.239-29.839-167.465-51.668-276.692-61.498l-95.648 1.295c-12.704 0-23.092-10.217-23.261-22.956-0.183-12.852 10.1-23.418 22.953-23.59l96.841-1.306c0.695 0 1.388 0.035 2.068 0.090 114.502 10.205 218.252 33.364 292.16 65.216 105.103 45.295 127.159 96.852 127.159 132.125 0 65.024-73.149 121.763-205.955 159.75zM425.556 192.864c-8.294 9.818-22.988 11.034-32.794 2.737-9.818-8.308-11.034-22.988-2.74-32.794l52.047-61.536c-109.83 8.375-209.318 28.5-282.455 57.364-71.852 28.352-113.068 63.023-113.068 95.136 0 37.274 55.238 77.443 147.761 107.465 12.227 3.968 18.932 17.091 14.967 29.321-3.968 12.215-17.103 18.918-29.321 14.953-53.83-17.466-96.509-38.225-126.874-61.737-35.215-27.273-53.079-57.559-53.079-90.001 0-53.772 49.283-101.635 142.522-138.432 75.785-29.897 177.411-50.897 289.114-59.942l-46.42-51.444c-8.602-9.545-7.852-24.262 1.693-32.864 4.442-4.023 10.022-5.999 15.578-5.999 6.353 0 12.695 2.589 17.286 7.68l84.681 93.853c3.863 4.273 6.001 9.83 6.001 15.59v1.775c0 5.498-1.955 10.828-5.513 15.034l-79.386 93.841z" />
<glyph unicode="&#xe93d;" glyph-name="140" horiz-adv-x="1164" d="M957.681 413.521c-12.364 3.535-25.251-3.625-28.783-15.977-3.535-12.364 3.625-25.251 15.977-28.785 106.225-30.374 172.215-74.441 172.215-114.988 0-29.681-36.090-62.26-99.034-89.376-69.239-29.839-167.465-51.668-276.692-61.498l-95.648 1.295c-12.704 0-23.092-10.217-23.261-22.956-0.183-12.852 10.1-23.418 22.953-23.59l96.841-1.306c0.695 0 1.388 0.035 2.068 0.090 114.502 10.205 218.252 33.364 292.16 65.216 105.103 45.295 127.159 96.852 127.159 132.125 0 65.024-73.149 121.763-205.955 159.75zM425.556 192.864c-8.294 9.818-22.988 11.034-32.794 2.737-9.818-8.308-11.034-22.988-2.74-32.794l52.047-61.536c-109.83 8.375-209.318 28.5-282.455 57.364-71.852 28.352-113.068 63.023-113.068 95.136 0 37.274 55.238 77.443 147.761 107.465 12.227 3.968 18.932 17.091 14.967 29.321-3.968 12.215-17.103 18.918-29.321 14.953-53.83-17.466-96.509-38.225-126.874-61.737-35.215-27.273-53.079-57.559-53.079-90.001 0-53.772 49.283-101.635 142.522-138.432 75.785-29.897 177.411-50.897 289.114-59.942l-46.42-51.444c-8.602-9.545-7.852-24.262 1.693-32.864 4.442-4.023 10.022-5.999 15.578-5.999 6.353 0 12.695 2.589 17.286 7.68l84.681 93.853c3.863 4.273 6.001 9.83 6.001 15.59v1.775c0 5.498-1.955 10.828-5.513 15.034l-79.386 93.841z" />
<glyph unicode="&#xe93e;" glyph-name="141" horiz-adv-x="1219" d="M1003.285 436.261c-12.952 3.703-26.453-3.797-30.153-16.738-3.703-12.952 3.797-26.453 16.738-30.156 111.284-31.82 180.416-77.986 180.416-120.463 0-31.095-37.809-65.225-103.75-93.632-72.536-31.259-175.439-54.129-289.868-64.427l-100.203 1.356c-13.309 0-24.192-10.703-24.369-24.049-0.192-13.464 10.581-24.533 24.046-24.713l101.452-1.368c0.728 0 1.454 0.037 2.167 0.094 119.954 10.691 228.645 34.953 306.072 68.322 110.107 47.451 133.214 101.464 133.214 138.417 0 68.12-76.632 127.561-215.762 167.357zM445.821 205.096c-8.689 10.286-24.082 11.56-34.356 2.868-10.286-8.704-11.56-24.082-2.871-34.356l54.525-64.466c-115.060 8.774-219.285 29.858-295.906 60.096-75.273 29.702-118.452 66.024-118.452 99.666 0 39.049 57.868 81.131 154.798 112.582 12.809 4.157 19.834 17.905 15.68 30.717-4.157 12.797-17.917 19.819-30.717 15.665-56.393-18.298-101.105-40.046-132.916-64.677-36.891-28.571-55.607-60.3-55.607-94.287 0-56.332 51.63-106.475 149.309-145.024 79.394-31.32 185.859-53.321 302.882-62.796l-48.631-53.894c-9.012-9.999-8.226-25.417 1.774-34.429 4.654-4.215 10.499-6.284 16.32-6.284 6.656 0 13.3 2.712 18.109 8.046l88.713 98.322c4.047 4.477 6.287 10.298 6.287 16.332v1.859c0 5.76-2.048 11.343-5.775 15.75l-83.166 98.31z" />
<glyph unicode="&#xe93f;" glyph-name="142" horiz-adv-x="1219" d="M1003.285 436.261c-12.952 3.703-26.453-3.797-30.153-16.738-3.703-12.952 3.797-26.453 16.738-30.156 111.284-31.82 180.416-77.986 180.416-120.463 0-31.095-37.809-65.225-103.75-93.632-72.536-31.259-175.439-54.129-289.868-64.427l-100.203 1.356c-13.309 0-24.192-10.703-24.369-24.049-0.192-13.464 10.581-24.533 24.046-24.713l101.452-1.368c0.728 0 1.454 0.037 2.167 0.094 119.954 10.691 228.645 34.953 306.072 68.322 110.107 47.451 133.214 101.464 133.214 138.417 0 68.12-76.632 127.561-215.762 167.357zM445.821 205.096c-8.689 10.286-24.082 11.56-34.356 2.868-10.286-8.704-11.56-24.082-2.871-34.356l54.525-64.466c-115.060 8.774-219.285 29.858-295.906 60.096-75.273 29.702-118.452 66.024-118.452 99.666 0 39.049 57.868 81.131 154.798 112.582 12.809 4.157 19.834 17.905 15.68 30.717-4.157 12.797-17.917 19.819-30.717 15.665-56.393-18.298-101.105-40.046-132.916-64.677-36.891-28.571-55.607-60.3-55.607-94.287 0-56.332 51.63-106.475 149.309-145.024 79.394-31.32 185.859-53.321 302.882-62.796l-48.631-53.894c-9.012-9.999-8.226-25.417 1.774-34.429 4.654-4.215 10.499-6.284 16.32-6.284 6.656 0 13.3 2.712 18.109 8.046l88.713 98.322c4.047 4.477 6.287 10.298 6.287 16.332v1.859c0 5.76-2.048 11.343-5.775 15.75l-83.166 98.31z" />
<glyph unicode="&#xe940;" glyph-name="143" horiz-adv-x="985" d="M414.739 320.434l-300.989-289.499c-13.182-12.701-13.182-33.285 0-46.026 13.168-12.698 34.575-12.698 47.757 0l277.114 266.54 277.096-266.5c13.182-12.701 34.589-12.701 47.799 0 13.182 12.701 13.182 33.312 0 46.013l-300.992 289.509c-13.032 12.507-34.777 12.507-47.785-0.037zM414.739 569.248l-300.989 289.499c-13.182 12.701-13.182 33.285 0 46.026 13.168 12.698 34.575 12.698 47.757 0l277.114-266.54 277.096 266.5c13.182 12.701 34.589 12.701 47.799 0 13.182-12.701 13.182-33.312 0-46.013l-300.992-289.509c-13.032-12.507-34.777-12.507-47.785 0.037z" />
<glyph unicode="&#xe941;" glyph-name="144" horiz-adv-x="1069" d="M36.555 672.873c-0.362-11.079 8.518-19.958 19.783-19.783 10.886 0.2 20.070 9.384 20.27 20.27l3.433 204.006 330.894-330.894c7.726-7.726 20.244-7.515 28.236 0.477 7.928 7.928 8.381 20.687 0.655 28.413l-330.894 330.894 203.765 3.191c11.079 0.393 20.328 9.642 20.464 20.464 0.175 11.266-8.704 20.145-19.783 19.783l-252.287-4.265c-11.073-0.013-20.257-9.197-20.206-20.206l-4.329-252.351zM36.555 234.801c-0.362 11.079 8.518 19.958 19.783 19.783 10.886-0.2 20.070-9.384 20.27-20.27l3.433-204.006 330.894 330.894c7.726 7.726 20.244 7.515 28.236-0.477 7.928-7.928 8.381-20.687 0.655-28.413l-330.894-330.894 203.765-3.191c11.079-0.393 20.328-9.642 20.464-20.464 0.175-11.266-8.704-20.145-19.783-19.783l-252.287 4.265c-11.073 0.013-20.257 9.197-20.206 20.206l-4.329 252.351zM1031.966 672.873c0.362-11.079-8.518-19.958-19.783-19.783-10.886 0.2-20.070 9.384-20.27 20.27l-3.433 204.006-330.894-330.894c-7.726-7.726-20.244-7.515-28.236 0.477-7.928 7.928-8.381 20.687-0.655 28.413l330.894 330.894-203.765 3.191c-11.079 0.393-20.328 9.642-20.464 20.464-0.175 11.266 8.704 20.145 19.783 19.783l252.287-4.265c11.073-0.013 20.257-9.197 20.206-20.206l4.329-252.351zM1031.966 234.801c0.362 11.079-8.518 19.958-19.783 19.783-10.886-0.2-20.070-9.384-20.27-20.27l-3.433-204.006-330.894 330.894c-7.726 7.726-20.244 7.515-28.236-0.477-7.928-7.928-8.381-20.687-0.655-28.413l330.894-330.894-203.765-3.191c-11.079-0.393-20.328-9.642-20.464-20.464-0.175-11.266 8.704-20.145 19.783-19.783l252.287 4.265c11.073 0.013 20.257 9.197 20.206 20.206l4.329 252.351z" />
<glyph unicode="&#xe942;" glyph-name="145" horiz-adv-x="2048" d="M1049.776 846.224c-264.445 0-505.392-112.075-689.853-295.824l-359.923 409.6v-1024h899.808l-361.423 411.307c138.472 132.549 315.931 214.469 511.391 214.469 354.426 0 654.362-262.256 759.339-625.776l236.448 88.747c-137.469 476.731-530.887 821.477-995.787 821.477z" />
<glyph unicode="&#xe943;" glyph-name="146" horiz-adv-x="2048" d="M998.224 846.224c264.445 0 505.392-112.075 689.853-295.824l359.923 409.6v-1024h-899.808l361.423 411.307c-138.472 132.549-315.931 214.469-511.391 214.469-354.426 0-654.362-262.256-759.339-625.776l-236.448 88.747c137.469 476.731 530.887 821.477 995.787 821.477z" />
<glyph unicode="&#xe944;" glyph-name="147" horiz-adv-x="878" d="M432.836 114.773c8.842 0 16.024 7.314 16.024 16.274v536.34c0 9.062-7.182 16.274-16.024 16.274-8.822 0-16.024-7.213-16.024-16.274v-536.34c0-8.96 7.202-16.274 16.024-16.274zM272.797 114.773c8.842 0 16.024 7.314 16.024 16.274v536.34c0 9.062-7.182 16.274-16.024 16.274-8.822 0-16.024-7.213-16.024-16.274v-536.34c0-8.96 7.202-16.274 16.024-16.274zM592.875 114.773c8.842 0 16.024 7.314 16.024 16.274v536.34c0 9.062-7.182 16.274-16.024 16.274-8.822 0-16.024-7.213-16.024-16.274v-536.34c0-8.96 7.202-16.274 16.024-16.274zM800.986 846.202h-224.835c-1.72 20.317-7.882 54.613-28.987 76.597-13.363 13.877-30.247 20.947-50.332 20.947h-160.039c-20.005 0-36.949-7.070-50.232-20.947-21.105-21.983-27.287-56.279-29.067-76.597h-192.707c-8.842 0-16.024-7.213-16.024-16.274 0-8.96 7.182-16.173 16.024-16.173h32.668l30.627-748.109c0.62-27.937 17.744-80.863 78.539-80.863h452.45c60.795 0 77.979 52.927 78.539 80.559l30.707 748.414h32.668c8.822 0 15.924 7.213 15.924 16.173 0 9.062-7.102 16.274-15.924 16.274zM309.526 900.165c7.122 7.477 16.104 11.032 27.267 11.032h160.039c11.263 0 20.165-3.556 27.367-11.032 12.883-13.41 18.044-36.897 19.845-53.963h-254.362c1.8 17.067 6.962 40.554 19.845 53.963zM705.642 66.357c-0.080-4.998-2.341-49.128-46.571-49.128h-452.45c-43.771 0-46.351 44.211-46.591 49.453l-30.547 747.073h606.788l-30.627-747.398z" />
<glyph unicode="&#xe945;" glyph-name="148" horiz-adv-x="1073" d="M319.343 262.503c-21.056 11.58-44.965 17.706-69.154 17.706-49.409 0-95.427-25.288-120.104-66.001-18.508-30.521-23.422-66.079-13.845-100.12 9.577-34.051 32.505-62.501 64.555-80.125 21.056-11.58 44.965-17.706 69.154-17.706 49.409 0 95.435 25.288 120.104 66.001 18.506 30.521 23.419 66.079 13.843 100.13-9.574 34.041-32.505 62.501-64.552 80.115zM342.367 97.484c-18.988-31.315-54.398-50.774-92.408-50.774-18.591 0-36.982 4.71-53.177 13.622-24.658 13.559-42.29 35.447-49.66 61.628-7.37 26.189-3.581 53.548 10.648 77.022 18.985 31.315 54.395 50.774 92.418 50.774 18.577 0 36.971-4.707 53.177-13.62 24.647-13.561 42.279-35.449 49.649-61.628 7.368-26.192 3.589-53.551-10.648-77.024zM821.033 280.209c-24.189 0-48.109-6.126-69.165-17.706-32.047-17.614-54.968-46.074-64.552-80.115-9.577-34.051-4.663-69.609 13.843-100.13 24.679-40.712 70.694-66.001 120.104-66.001 24.189 0 48.109 6.126 69.165 17.706 32.047 17.624 54.968 46.074 64.555 80.125 9.574 34.041 4.663 69.599-13.845 100.12-24.677 40.712-70.694 66.001-120.104 66.001zM924.089 121.96c-7.36-26.181-25.002-48.079-49.649-61.628-16.206-8.912-34.586-13.622-53.177-13.622-38.013 0-73.423 19.459-92.408 50.774-14.237 23.474-18.015 50.833-10.648 77.024 7.37 26.179 25.002 48.077 49.649 61.628 16.206 8.912 34.597 13.62 53.177 13.62 38.024 0 73.433-19.459 92.418-50.774 14.229-23.474 18.007-50.833 10.637-77.022zM995.241 246.396c-28.165 46.46-75.661 80.364-130.304 93.002-51.533 11.925-103.786 3.906-147.125-22.591-30.030-18.35-67.907-14.434-90.649 8.070l297.903 405.149c20.411 27.765 28.25 61.44 22.065 94.816-6.182 33.378-25.636 62.463-54.789 81.902-3.467 2.319-7.765 3.22-11.94 2.528-4.183-0.705-7.89-2.954-10.325-6.266l-334.467-454.933-211.262 287.356c-5.071 6.89-15.042 8.565-22.276 3.738-7.224-4.819-8.982-14.315-3.922-21.205l237.292-322.755c-14.759-0.008-29.652-4.152-42.633-12.805-12.969-8.656-22.148-20.56-27.205-33.754l-293.262 398.845c-15.508 21.104-21.463 46.689-16.768 72.055 3.757 20.291 13.978 38.502 29.257 52.538l76.639-104.233c5.068-6.89 15.042-8.565 22.265-3.746 7.232 4.827 8.993 14.323 3.933 21.213l-86.524 117.686c-5.071 6.89-15.042 8.555-22.276 3.738-29.143-19.439-48.607-48.523-54.779-81.902-6.185-33.386 1.655-67.051 22.065-94.816l297.893-405.149c-22.745-22.504-60.609-26.428-90.649-8.070-43.331 26.496-95.581 34.515-147.114 22.591-54.645-12.638-102.139-46.541-130.304-93.002-27.043-44.618-34.235-96.592-20.235-146.354s47.515-91.357 94.364-117.11c31.058-17.081 65.877-25.874 101.1-25.864 14.655 0 29.393 1.518 43.955 4.601 49.231 10.407 92.333 37.649 121.404 76.776l119.043 161.895 119.094-161.966c29.031-39.055 72.122-66.297 121.353-76.705 14.573-3.083 29.3-4.611 43.966-4.611 35.223 0 70.039 8.793 101.1 25.864 46.849 25.763 80.353 67.358 94.353 117.12s6.805 101.736-20.235 146.354zM886.388 872.097c15.281-14.036 25.503-32.247 29.26-52.548 4.695-25.367-1.26-50.952-16.779-72.055l-291.711-396.734-10.429 14.186c-0.019 0.028-41.602 56.591-41.602 56.591l331.261 450.561zM390.423 55.98c-51.139-68.817-147.583-88.88-224.337-46.681-39.447 21.7-67.664 56.723-79.458 98.623-11.783 41.903-5.734 85.678 17.037 123.248 23.816 39.284 63.971 67.952 110.165 78.638 42.956 9.943 86.391 3.322 122.302-18.627 41.226-25.197 93.031-20.738 126.483 8.435l11.514-15.65c0.125-0.18 0.24-0.358 0.362-0.528 0.053-0.069 0.115-0.127 0.168-0.208l41.426-56.345-125.662-170.906zM984.583 107.922c-11.783-41.91-40.011-76.933-79.458-98.623-76.753-42.199-173.187-22.136-224.283 46.61l-180.328 245.266c-13.251 18.32-8.524 43.506 10.637 56.284 19.257 12.838 45.881 8.367 59.37-9.96l23.888-32.485c31.237-42.486 93.031-52.954 140.682-23.832 35.911 21.959 79.346 28.569 122.302 18.627 46.193-10.686 86.338-39.344 110.151-78.628 22.785-37.581 28.833-81.356 17.040-123.259zM551.598 324.192c0-8.405-7.162-15.226-15.988-15.226-8.828 0-15.988 6.821-15.988 15.226 0 8.415 7.16 15.226 15.988 15.226 8.825 0 15.988-6.811 15.988-15.226z" />
<glyph unicode="&#xe946;" glyph-name="149" horiz-adv-x="870" d="M581.144 806.4h-496.689c-46.603 0-84.456-37.374-84.456-83.386v-703.628c0-46.012 37.853-83.386 84.456-83.386h496.689c46.605 0 84.456 37.374 84.456 83.386v703.628c-0.213 46.012-38.066 83.386-84.456 83.386zM614.4 12.744c0-14.095-11.705-25.544-26.117-25.544h-510.968c-14.409 0-26.114 11.45-26.114 25.544v716.923c0 14.095 11.705 25.533 26.114 25.533h510.968c14.412 0 26.117-11.439 26.117-25.533v-716.923zM785.945 960h-496.689c-46.602 0-84.455-37.374-84.455-83.386 0-16.203 13.12-29.167 29.53-29.167s29.541 12.965 29.541 29.167c0 13.818 11.378 25.052 25.384 25.052h496.689c13.995 0 25.373-11.234 25.373-25.052v-703.627c0-13.821-11.378-25.055-25.373-25.055-16.41 0-29.541-12.965-29.541-29.167s13.131-29.165 29.541-29.165c46.602 0 84.455 37.374 84.455 83.386v703.627c0 46.012-37.853 83.386-84.455 83.386z" />
<glyph unicode="&#xe947;" glyph-name="150" horiz-adv-x="870" d="M750.305 850.664h-183.501c-17.476 52.483-65.7 87.491-122.443 87.491s-104.748-35.007-122.225-87.491h-183.446c-48.224 0-87.491-39.212-87.491-87.217v-699.105c0-48.005 39.267-87.491 87.491-87.491h611.615c48.005 0 87.217 39.485 87.217 87.491v699.105c0 48.005-39.212 87.217-87.217 87.217zM444.361 850.664c26.269 0 43.745-17.476 43.745-43.472 0-26.269-17.476-43.745-43.745-43.745-26.214 0-43.745 17.476-43.745 43.745 0 25.996 17.531 43.472 43.745 43.472zM750.305 64.341h-611.615v699.105h87.217v-131.236h436.907v131.236h87.491v-699.105z" />
<glyph unicode="&#xe948;" glyph-name="151" horiz-adv-x="1126" d="M1052.57 563.886c-8.109 5.821-19.32 3.843-25.041-4.407s-3.793-19.666 4.32-25.487c26.737-19.179 58.603-49.856 58.603-87.025 0-57.536-79.061-117.547-212.464-155.56-14.943 50.892-35.011 104.073-59.552 157.845 23.58 52.334 42.935 104.119 57.446 153.548 35.071-9.844 67.263-21.403 95.759-34.536 2.412-1.106 4.925-1.643 7.405-1.643 6.848 0 13.376 3.998 16.384 10.749 4.095 9.192 0.093 20.038-8.951 24.204-30.086 13.867-64.058 26.057-100.978 36.416 7.735 30.69 13.421 60.239 16.908 88.155 14.559 3.322 27.384 12.678 34.99 26.082 7.196 12.69 9.116 27.477 5.383 41.63-3.721 14.156-12.651 25.99-25.113 33.31-4.446 2.609-9.209 4.526-14.146 5.751-7.292 52.642-28.193 90.417-60.981 109.666-55.397 32.549-136.564 8.798-228.542-66.88-17.202-14.156-34.463-29.845-51.641-46.894-17.378 17.262-34.814 33.155-52.204 47.454-91.978 75.678-173.157 99.429-228.554 66.892-33.046-19.404-54.016-57.621-61.155-110.906-4.062-1.213-8.005-2.904-11.713-5.083-12.474-7.32-21.393-19.154-25.125-33.31-3.733-14.153-1.812-28.94 5.383-41.63 7.22-12.702 19.122-21.797 32.743-25.536 3.532-28.261 9.314-58.176 17.19-89.274-29.945-8.463-57.914-18.155-83.414-28.962-9.676 9.368-22.75 15.141-37.129 15.141-29.736 0-53.923-24.619-53.923-54.857 0-3.785 0.374-7.488 1.099-11.060-42.935-33.274-65.556-71.345-65.556-110.714 0-65.082 60.805-124.715 171.213-167.915 20.644-8.073 42.62-15.43 65.721-22.050-9.514-37.358-16.033-73.048-19.239-106.213-0.971-10.048 6.249-19.002 16.126-19.989 0.596-0.058 1.192-0.094 1.779-0.094 9.137 0 16.956 7.058 17.867 16.5 3.032 31.369 9.212 65.167 18.22 100.608 50.565-12.309 105.648-21.275 163.469-26.633 32.848-47.272 67.356-90.569 102.311-128.381-99.632-99.618-190.931-139.822-240.151-110.915-31.641 18.581-41.824 62.001-44.783 95.144-0.902 10.057-9.667 17.487-19.532 16.546-9.886-0.917-17.166-9.81-16.276-19.867 5.359-59.883 27.019-102.583 62.617-123.49 16.195-9.512 34.592-14.214 54.825-14.214 48.962 0 108.641 27.547 173.729 81.094 18.151 14.942 36.371 31.598 54.496 49.74 22.89-22.906 45.838-43.298 68.483-60.788-0.012-0.070-0.048-0.131-0.060-0.189-3.721-14.156-1.812-28.94 5.383-41.63 9.607-16.917 27.513-27.429 46.74-27.429 9.419 0 18.735 2.536 26.926 7.357 3.862 2.261 7.337 4.952 10.416 7.963 24.937-10.31 48.327-15.5 69.639-15.5 20.338 0 38.792 4.715 54.882 14.168 55.397 32.533 75.759 115.928 57.33 234.798-3.535 22.833-8.439 46.546-14.58 70.878 23.789 6.763 46.422 14.299 67.626 22.595 110.42 43.191 171.225 102.824 171.225 167.906 0 41.822-25.533 82.252-73.83 116.919zM843.173 282.313c-38.816-9.31-81.505-16.823-127.589-22.059 14.616 22.714 28.834 46.202 42.537 70.345 14.218 25.045 27.561 50.307 39.987 75.56 18.103-42.228 33.235-83.81 45.065-123.846zM394.911 543.921c18.876 33.274 38.244 64.488 57.857 93.617 35.973 2.941 72.961 4.477 110.432 4.477 36.803 0 73.114-1.475 108.455-4.309 19.52-29.022 38.792-60.105 57.587-93.214 17.998-31.714 34.544-63.607 49.511-95.333-15.575-33.405-32.881-66.999-51.769-100.285-18.735-33.012-37.962-64.012-57.422-92.952-33.924-2.597-69.417-4.002-106.361-4.002-37.588 0-73.677 1.454-108.14 4.133-20.092 29.726-39.505 60.965-57.902 93.391-18.768 33.073-35.973 66.453-51.464 99.654 14.907 31.61 31.347 63.36 49.217 94.824zM326.5 492.157c-17.226 40.643-31.689 80.667-43.097 119.144 38.51 9.204 79.879 16.475 123.152 21.632-14.709-22.833-29.011-46.443-42.782-70.714-13.19-23.238-25.617-46.644-37.273-70.062zM562.334 777.097c27.276-29.391 54.975-63.083 82.44-100.891-26.833 1.56-54.073 2.38-81.574 2.38-28.145 0-56.041-0.856-83.494-2.499 27.534 37.87 55.292 71.607 82.629 101.010zM797.923 492.242c-11.716 23.534-24.248 47.095-37.555 70.534-13.703 24.155-27.932 47.668-42.573 70.394 43.3-5.071 84.702-12.251 123.272-21.382-11.399-38.595-25.874-78.76-43.145-119.546zM906.273 770.514c-3.208-5.629-9.188-9.143-15.602-9.143-3.17 0-6.177 0.823-8.951 2.453-4.164 2.453-7.139 6.394-8.379 11.109-1.24 4.712-0.608 9.643 1.803 13.867 2.879 5.083 8.017 8.405 13.691 9.024 0.704 0.073 1.3 0.131 1.908 0.131 3.161 0 6.177-0.82 8.951-2.45 4.155-2.453 7.127-6.394 8.367-11.109 1.252-4.715 0.608-9.643-1.788-13.882zM824.579 910.921c27.417-16.11 38.735-50.859 43.193-81.655-9.805-4.702-18.184-12.346-23.768-22.181-7.196-12.678-9.116-27.462-5.38-41.618 3.733-14.153 12.648-25.987 25.122-33.31 0.983-0.57 1.977-1.118 2.984-1.618-3.298-26.429-8.694-54.427-16.018-83.547-49.349 11.761-103.087 20.428-159.314 25.679-33.352 48.094-68.399 91.986-104.021 130.286 98.485 97.475 188.462 136.594 237.203 107.965zM218.339 784.396c1.24 4.715 4.212 8.655 8.367 11.109 2.75 1.606 5.734 2.426 8.858 2.438 0.129 0 0.246 0 0.362-0.012 6.318-0.094 12.181-3.56 15.341-9.131 2.4-4.224 3.032-9.155 1.791-13.867-1.24-4.727-4.215-8.667-8.379-11.109-2.774-1.63-5.782-2.453-8.951-2.453-6.414 0-12.393 3.502-15.602 9.143-2.397 4.239-3.041 9.167-1.788 13.882zM257.61 729.576c1.72 0.774 3.406 1.618 5.045 2.581 12.474 7.323 21.402 19.157 25.122 33.31 3.736 14.156 1.815 28.94-5.38 41.618-5.991 10.56-15.203 18.609-25.955 23.192 4.515 30.738 15.865 65.189 43.133 81.213 48.834 28.678 139.044-10.63 237.751-108.51-35.724-38.333-70.867-82.298-104.312-130.502-56.251-5.346-109.977-14.117-159.302-25.975-7.325 28.94-12.744 56.774-16.102 83.072zM118.392 587.014c9.91 0 17.974-8.201 17.974-18.286 0-10.082-8.065-18.286-17.974-18.286-9.925 0-17.974 8.204-17.974 18.286 0 10.085 8.050 18.286 17.974 18.286zM35.949 446.967c0 32.311 24.035 59.752 48.387 79.262 9.293-7.714 21.147-12.346 34.056-12.346 29.721 0 53.923 24.606 53.923 54.857 0 2.383-0.177 4.715-0.47 7.013 23.523 9.847 49.244 18.691 76.742 26.487 14.547-49.295 33.891-100.928 57.422-153.070-24.421-53.559-44.466-106.618-59.445-157.239-132.283 38.037-210.616 97.762-210.616 155.035zM281.342 282.764c11.83 39.799 26.962 81.262 45.008 123.334 12.345-25.048 25.581-50.094 39.682-74.941 13.747-24.226 28.073-47.82 42.818-70.665-46.084 5.297-88.74 12.891-127.508 22.272zM563.2 215.348c26.881 0 53.468 0.762 79.621 2.228-26.728-36.834-53.69-69.751-80.253-98.609-27.3 29.62-54.379 62.775-80.568 98.691 26.656-1.524 53.783-2.31 81.2-2.31zM691.9-24.177c-2.786-1.63-5.794-2.462-8.963-2.462-6.414 0-12.393 3.511-15.599 9.155-2.4 4.227-3.032 9.155-1.791 13.87 0.455 1.737 1.147 3.368 2.049 4.867 0.033 0.037 0.069 0.073 0.105 0.119 0.129 0.18 0.234 0.369 0.35 0.561 1.51 2.249 3.487 4.154 5.875 5.559 2.726 1.606 5.827 2.466 8.951 2.466 6.414 0 12.393-3.514 15.599-9.155 4.952-8.725 2.001-19.941-6.576-24.978zM866.624 179.886c15.716-101.382 1.216-173.346-39.798-197.443-27.207-15.976-62.093-8.808-90.436 2.502 1.405 11.441-0.701 23.415-6.785 34.142-9.607 16.917-27.513 27.429-46.728 27.429-9.431 0-18.735-2.548-26.926-7.357-1.591-0.93-3.125-1.941-4.586-3.014-21.099 16.393-42.504 35.441-63.872 56.823 34.885 37.775 69.184 80.893 101.855 128.037 57.776 5.26 112.823 14.129 163.409 26.331 5.839-23.177 10.509-45.736 13.867-67.45zM563.2 318.967c69.381 0 125.821 57.429 125.821 128 0 70.583-56.44 128-125.821 128s-125.821-57.417-125.821-128c0-70.571 56.44-128 125.821-128zM563.2 538.395c49.559 0 89.872-41.012 89.872-91.429s-40.314-91.429-89.872-91.429c-49.559 0-89.872 41.012-89.872 91.429s40.314 91.429 89.872 91.429z" />
<glyph unicode="&#xe949;" glyph-name="152" d="M448 512h-448v-128h448v-448h128v448h448v128h-448v448h-128z" />
<glyph unicode="&#xe94a;" glyph-name="153" horiz-adv-x="6827" d="M0 960h6826.667v-853.333h-6826.667v853.333z" />
<glyph unicode="&#xe94b;" glyph-name="154" d="M896 832h64v64h-64v-64zM896 416h64v64h-64v-64zM896 0h64v64h-64v-64zM832 96v-32h-224v32c0 17.674-14.326 32-32 32h-128c-17.674 0-32-14.326-32-32v-32h-224v32c0 17.674-14.326 32-32 32h-32v224h32c17.674 0 32 14.326 32 32v128c0 17.674-14.326 32-32 32h-32v224h32c17.674 0 32 14.326 32 32v32h224v-32c0-17.674 14.326-32 32-32h128c17.674 0 32 14.326 32 32v32h224v-32c0-17.674 14.326-32 32-32h32v-224h-32c-17.674 0-32-14.326-32-32v-128c0-17.674 14.326-32 32-32h32v-224h-32c-17.674 0-32-14.326-32-32zM480 0h64v64h-64v-64zM64 0h64v64h-64v-64zM64 416h64v64h-64v-64zM64 832h64v64h-64v-64zM480 832h64v64h-64v-64zM992 768c17.674 0 32 14.326 32 32v128c0 17.674-14.326 32-32 32h-128c-17.674 0-32-14.326-32-32v-32h-224v32c0 17.674-14.326 32-32 32h-128c-17.674 0-32-14.326-32-32v-32h-224v32c0 17.674-14.326 32-32 32h-128c-17.674 0-32-14.326-32-32v-128c0-17.674 14.326-32 32-32h32v-224h-32c-17.674 0-32-14.326-32-32v-128c0-17.674 14.326-32 32-32h32v-224h-32c-17.674 0-32-14.326-32-32v-128c0-17.674 14.326-32 32-32h128c17.674 0 32 14.326 32 32v32h224v-32c0-17.674 14.326-32 32-32h128c17.674 0 32 14.326 32 32v32h224v-32c0-17.674 14.326-32 32-32h128c17.674 0 32 14.326 32 32v128c0 17.674-14.326 32-32 32h-32v224h32c17.674 0 32 14.326 32 32v128c0 17.674-14.326 32-32 32h-32v224h32zM544 576h-64v-96h-96v-64h96v-96h64v96h96v64h-96v96z" />
<glyph unicode="&#xe94c;" glyph-name="155" d="M896 832h64v64h-64v-64zM896 416h64v64h-64v-64zM896 0h64v64h-64v-64zM832 96v-32h-224v32c0 17.674-14.326 32-32 32h-128c-17.674 0-32-14.326-32-32v-32h-224v32c0 17.674-14.326 32-32 32h-32v224h32c17.674 0 32 14.326 32 32v128c0 17.674-14.326 32-32 32h-32v224h32c17.674 0 32 14.326 32 32v32h224v-32c0-17.674 14.326-32 32-32h128c17.674 0 32 14.326 32 32v32h224v-32c0-17.674 14.326-32 32-32h32v-224h-32c-17.674 0-32-14.326-32-32v-128c0-17.674 14.326-32 32-32h32v-224h-32c-17.674 0-32-14.326-32-32zM480 0h64v64h-64v-64zM64 0h64v64h-64v-64zM64 416h64v64h-64v-64zM64 832h64v64h-64v-64zM480 832h64v64h-64v-64zM992 768c17.674 0 32 14.326 32 32v128c0 17.674-14.326 32-32 32h-128c-17.674 0-32-14.326-32-32v-32h-224v32c0 17.674-14.326 32-32 32h-128c-17.674 0-32-14.326-32-32v-32h-224v32c0 17.674-14.326 32-32 32h-128c-17.674 0-32-14.326-32-32v-128c0-17.674 14.326-32 32-32h32v-224h-32c-17.674 0-32-14.326-32-32v-128c0-17.674 14.326-32 32-32h32v-224h-32c-17.674 0-32-14.326-32-32v-128c0-17.674 14.326-32 32-32h128c17.674 0 32 14.326 32 32v32h224v-32c0-17.674 14.326-32 32-32h128c17.674 0 32 14.326 32 32v32h224v-32c0-17.674 14.326-32 32-32h128c17.674 0 32 14.326 32 32v128c0 17.674-14.326 32-32 32h-32v224h32c17.674 0 32 14.326 32 32v128c0 17.674-14.326 32-32 32h-32v224h32zM670.392 543.035l-63.357 63.357-95.035-95.035-95.035 95.035-63.357-63.357 95.035-95.035-95.035-95.035 63.357-63.357 95.035 95.035 95.035-95.035 63.357 63.357-95.035 95.035 95.035 95.035z" />
<glyph unicode="&#xe94d;" glyph-name="156" d="M512 38.4h-409.6v819.2h409.6v-819.2zM153.6 806.4v51.2h-51.2v-51.2h51.2zM512 38.4v51.2h-51.2v-51.2h51.2zM153.6 38.4v51.2h-51.2v-51.2h51.2zM512 806.4v51.2h-51.2v-51.2h51.2zM128 64h-64v-64h64v64zM128 480h-64v-64h64v64zM128 896h-64v-64h64v64zM192 800v32h224v-32c0-17.674 14.326-32 32-32h128c17.674 0 32 14.326 32 32v32h224v-32c0-17.674 14.326-32 32-32h32v-224h-32c-17.674 0-32-14.326-32-32v-128c0-17.674 14.326-32 32-32h32v-224h-32c-17.674 0-32-14.326-32-32v-32h-224v32c0 17.674-14.326 32-32 32h-128c-17.674 0-32-14.326-32-32v-32h-224v32c0 17.674-14.326 32-32 32h-32v224h32c17.674 0 32 14.326 32 32v128c0 17.674-14.326 32-32 32h-32v224h32c17.674 0 32 14.326 32 32zM544 896h-64v-64h64v64zM960 896h-64v-64h64v64zM960 480h-64v-64h64v64zM960 64h-64v-64h64v64zM544 64h-64v-64h64v64zM0 96v-128c0-17.674 14.326-32 32-32h128c17.674 0 32 14.326 32 32v32h224v-32c0-17.674 14.326-32 32-32h128c17.674 0 32 14.326 32 32v32h224v-32c0-17.674 14.326-32 32-32h128c17.674 0 32 14.326 32 32v128c0 17.674-14.326 32-32 32h-32v224h32c17.674 0 32 14.326 32 32v128c0 17.674-14.326 32-32 32h-32v224h32c17.674 0 32 14.326 32 32v128c0 17.674-14.326 32-32 32h-128c-17.674 0-32-14.326-32-32v-32h-224v32c0 17.674-14.326 32-32 32h-128c-17.674 0-32-14.326-32-32v-32h-224v32c0 17.674-14.326 32-32 32h-128c-17.674 0-32-14.326-32-32v-128c0-17.674 14.326-32 32-32h32v-224h-32c-17.674 0-32-14.326-32-32v-128c0-17.674 14.326-32 32-32h32v-224h-32c-17.674 0-32-14.326-32-32z" />
<glyph unicode="&#xe94e;" glyph-name="157" d="M512 857.6h409.6v-819.2h-409.6v819.2zM870.4 89.6v-51.2h51.2v51.2h-51.2zM512 857.6v-51.2h51.2v51.2h-51.2zM870.4 857.6v-51.2h51.2v51.2h-51.2zM512 89.6v-51.2h51.2v51.2h-51.2zM896 832h64v64h-64v-64zM896 416h64v64h-64v-64zM896 0h64v64h-64v-64zM832 96v-32h-224v32c0 17.674-14.326 32-32 32h-128c-17.674 0-32-14.326-32-32v-32h-224v32c0 17.674-14.326 32-32 32h-32v224h32c17.674 0 32 14.326 32 32v128c0 17.674-14.326 32-32 32h-32v224h32c17.674 0 32 14.326 32 32v32h224v-32c0-17.674 14.326-32 32-32h128c17.674 0 32 14.326 32 32v32h224v-32c0-17.674 14.326-32 32-32h32v-224h-32c-17.674 0-32-14.326-32-32v-128c0-17.674 14.326-32 32-32h32v-224h-32c-17.674 0-32-14.326-32-32zM480 0h64v64h-64v-64zM64 0h64v64h-64v-64zM64 416h64v64h-64v-64zM64 832h64v64h-64v-64zM480 832h64v64h-64v-64zM1024 800v128c0 17.674-14.326 32-32 32h-128c-17.674 0-32-14.326-32-32v-32h-224v32c0 17.674-14.326 32-32 32h-128c-17.674 0-32-14.326-32-32v-32h-224v32c0 17.674-14.326 32-32 32h-128c-17.674 0-32-14.326-32-32v-128c0-17.674 14.326-32 32-32h32v-224h-32c-17.674 0-32-14.326-32-32v-128c0-17.674 14.326-32 32-32h32v-224h-32c-17.674 0-32-14.326-32-32v-128c0-17.674 14.326-32 32-32h128c17.674 0 32 14.326 32 32v32h224v-32c0-17.674 14.326-32 32-32h128c17.674 0 32 14.326 32 32v32h224v-32c0-17.674 14.326-32 32-32h128c17.674 0 32 14.326 32 32v128c0 17.674-14.326 32-32 32h-32v224h32c17.674 0 32 14.326 32 32v128c0 17.674-14.326 32-32 32h-32v224h32c17.674 0 32 14.326 32 32z" />
<glyph unicode="&#xe94f;" glyph-name="158" d="M870.4 396.8v102.4h51.2v-104.32h-51.2v1.92h-358.4v460.8h409.6v-460.8h-51.2zM512 857.6v-28.8h51.2v28.8h-51.2zM870.4 857.6v-28.8h51.2v28.8h-51.2zM896 832h64v64h-64v-64zM896 416h64v64h-64v-64zM896 0h64v64h-64v-64zM832 96v-32h-224v32c0 17.674-14.326 32-32 32h-128c-17.674 0-32-14.326-32-32v-32h-224v32c0 17.674-14.326 32-32 32h-32v224h32c17.674 0 32 14.326 32 32v128c0 17.674-14.326 32-32 32h-32v224h32c17.674 0 32 14.326 32 32v32h224v-32c0-17.674 14.326-32 32-32h128c17.674 0 32 14.326 32 32v32h224v-32c0-17.674 14.326-32 32-32h32v-224h-32c-17.674 0-32-14.326-32-32v-128c0-17.674 14.326-32 32-32h32v-224h-32c-17.674 0-32-14.326-32-32zM480 0h64v64h-64v-64zM64 0h64v64h-64v-64zM64 416h64v64h-64v-64zM64 832h64v64h-64v-64zM480 832h64v64h-64v-64zM1024 800v128c0 17.674-14.326 32-32 32h-128c-17.674 0-32-14.326-32-32v-32h-224v32c0 17.674-14.326 32-32 32h-128c-17.674 0-32-14.326-32-32v-32h-224v32c0 17.674-14.326 32-32 32h-128c-17.674 0-32-14.326-32-32v-128c0-17.674 14.326-32 32-32h32v-224h-32c-17.674 0-32-14.326-32-32v-128c0-17.674 14.326-32 32-32h32v-224h-32c-17.674 0-32-14.326-32-32v-128c0-17.674 14.326-32 32-32h128c17.674 0 32 14.326 32 32v32h224v-32c0-17.674 14.326-32 32-32h128c17.674 0 32 14.326 32 32v32h224v-32c0-17.674 14.326-32 32-32h128c17.674 0 32 14.326 32 32v128c0 17.674-14.326 32-32 32h-32v224h32c17.674 0 32 14.326 32 32v128c0 17.674-14.326 32-32 32h-32v224h32c17.674 0 32 14.326 32 32z" />
<glyph unicode="&#xe951;" glyph-name="160" horiz-adv-x="1126" d="M802.984 21.332h-462.5l-231.584 405.336 231.584 405.332h462.5l231.584-405.332-231.584-405.336zM864.816 895.832c-7.664 13.292-21.748 21.5-37.084 21.5h-512c-15.332 0-29.416-8.208-37.080-21.5l-256-448c-7.42-13.124-7.42-29.208 0-42.332l256-448c7.664-13.292 21.748-21.5 37.080-21.5h512c15.336 0 29.42 8.208 37.084 21.5l256 448c7.416 13.124 7.416 29.208 0 42.332l-256 448zM728.652 192h-313.836c-23.584 0-42.664-19.084-42.664-42.668s19.080-42.664 42.664-42.664h313.836c23.58 0 42.664 19.080 42.664 42.664s-19.084 42.668-42.664 42.668zM707.484 741.040c-20.5-11.708-27.584-37.748-15.916-58.208l158.5-277.332c7.916-13.792 22.332-21.5 37.084-21.5 7.248 0 14.5 1.792 21.164 5.624 20.5 11.708 27.584 37.752 15.916 58.208l-158.5 277.336c-11.832 20.58-38 27.624-58.248 15.872z" />
<glyph unicode="&#xe952;" glyph-name="161" horiz-adv-x="853" d="M192 277.333c-82.964 0-149.333-66.372-149.333-149.333 0-82.964 66.37-149.333 149.333-149.333s149.333 66.37 149.333 149.333c0 82.962-66.372 149.333-149.333 149.333zM192.001-64c-106.474 0-192.001 85.527-192.001 192.001 0 106.472 85.527 191.999 192.001 191.999 106.472 0 191.999-85.527 191.999-191.999 0-106.474-85.527-192.001-191.999-192.001v0zM101.335 106.667c-9.6 0-16.001 6.401-16.001 16.001 0 62.4 49.601 111.999 112.001 111.999 9.6 0 15.999-6.399 15.999-15.999s-6.399-16.001-15.999-16.001c-44.801 0-80-35.199-80-79.998 0-9.6-6.399-16.001-15.999-16.001zM127.999 917.333c-47.786 0-85.332-37.546-85.332-85.332 0-47.788 37.546-85.334 85.332-85.334 47.788 0 85.334 37.546 85.334 85.334 0 47.786-37.546 85.332-85.334 85.332zM127.999 704c-71.314 0-127.999 56.687-127.999 128.001s56.685 127.999 127.999 127.999c71.314 0 128.001-56.685 128.001-127.999s-56.687-128.001-128.001-128.001v0zM106.668 789.333c-12.8 0-21.335 8.535-21.335 21.335 0 36.264 27.734 63.999 63.999 63.999 12.8 0 21.335-8.535 21.335-21.335s-8.535-21.332-21.335-21.332c-12.8 0-21.332-8.532-21.332-21.332s-8.532-21.335-21.332-21.335zM704.001 704c-59.428 0-106.668-47.238-106.668-106.667s47.239-106.667 106.668-106.667c59.428 0 106.666 47.238 106.666 106.667s-47.237 106.667-106.666 106.667zM704 448c-82.964 0-149.333 66.37-149.333 149.333s66.37 149.333 149.333 149.333c82.962 0 149.333-66.37 149.333-149.333s-66.372-149.333-149.333-149.333v0zM654.222 576c-8.533 0-14.222 5.688-14.222 14.222 0 39.822 31.288 71.112 71.112 71.112 8.533 0 14.222-5.69 14.222-14.223s-5.688-14.222-14.222-14.222c-24.178 0-42.667-18.488-42.667-42.667 0-8.533-5.69-14.222-14.223-14.222zM580.924 661.333c-1.682 0-5.041 0-6.722 1.554l-351.178 139.934c-8.402 3.11-11.763 12.439-8.402 20.212 3.361 7.775 13.443 10.885 21.843 7.775l351.18-139.934c8.402-3.11 11.761-12.439 8.402-20.212-3.361-6.22-10.082-9.329-15.123-9.329zM317.024 234.667c-5.222 0-10.444 1.751-13.924 5.254-6.964 7.004-5.222 17.512 1.74 24.516l306.359 264.438c6.962 7.004 17.406 5.254 24.368-1.753 6.964-7.004 5.222-19.262-1.74-24.516l-306.359-262.685c-3.48-3.503-6.962-5.254-10.444-5.254zM397.768 234.667c-3.917 0-7.833 1.25-10.443 3.753-5.223 5.003-3.917 12.508 1.305 17.511l229.769 188.884c5.222 5.003 13.055 3.753 18.276-1.252 5.223-5.003 3.917-13.759-1.305-17.511l-229.769-187.632c-2.61-2.502-5.222-3.753-7.833-3.753z" />
<glyph unicode="&#xe953;" glyph-name="162" d="M934.98 472.662h-342.734c-14.205 0-25.704-11.499-25.704-25.704 0-14.213 11.499-25.498 25.704-25.498h342.734l-87.152-87.144c-10.031-10.031-10.031-26.122 0-36.153 5.018-5.018 11.499-7.518 18.184-7.518 6.682 0 13.163 2.5 18.181 7.518l130.819 130.819c10.028 10.028 10.028 26.122 0 36.151l-130.819 130.826c-10.028 10.031-26.122 10.031-36.151 0-10.031-10.028-10.031-26.122 0-36.151l86.938-87.144zM138.347 298.162c5.010-5.018 11.489-7.518 18.184-7.518 6.682 0 13.163 2.5 18.173 7.518 10.031 10.031 10.031 26.122 0 36.153l-87.142 87.144h342.724c14.213 0 25.704 11.489 25.704 25.498 0 14.002-11.491 25.704-25.704 25.704h-342.724l86.938 87.144c10.031 10.028 10.031 26.122 0 36.151-10.031 10.031-26.122 10.031-36.153 0l-130.826-130.826c-10.031-10.028-10.031-26.122 0-36.151l130.826-130.819zM398.315 783.621l87.144 87.144v-342.727c0-14.213 11.489-25.702 25.704-25.702 14.213 0 25.704 11.489 25.704 25.702v342.727l87.142-87.144c5.021-5.021 11.499-7.521 18.184-7.521 6.682 0 13.163 2.5 18.184 7.521 10.031 10.031 10.031 26.122 0 36.153l-130.826 130.816c-9.613 9.624-26.54 9.624-36.153 0l-130.816-130.816c-10.031-10.031-10.031-26.122 0-36.153 9.61-10.031 25.908-10.031 35.733 0zM511.164 391.784c-14.216 0-25.704-11.489-25.704-25.704v-342.724l-87.144 87.144c-10.028 10.028-26.122 10.028-36.151 0-10.031-10.031-10.031-26.122 0-36.153l130.816-130.826c4.807-4.807 11.285-7.521 18.184-7.521 6.682 0 13.377 2.714 18.184 7.521l130.816 130.826c10.031 10.031 10.031 26.122 0 36.153-10.031 10.028-26.122 10.028-36.153 0l-87.142-87.144v342.724c-0.206 14.216-11.491 25.704-25.704 25.704z" />
<glyph unicode="&#xe954;" glyph-name="163" d="M103.033 833.088c3.161-3.187 7.324-4.757 11.477-4.757 4.163 0 8.316 1.57 11.484 4.757 6.346 6.327 6.346 16.624 0 22.961l-45.938 45.917c-6.356 6.356-16.631 6.356-22.959 0-6.356-6.327-6.356-16.622 0-22.959l45.936-45.919zM275.253 828.312c4.163 0 8.316 1.589 11.484 4.757l45.919 45.938c6.346 6.356 6.346 16.631 0 22.959-6.337 6.356-16.615 6.356-22.961 0l-45.917-45.936c-6.356-6.327-6.356-16.622 0-22.961 3.159-3.168 7.321-4.757 11.475-4.757zM194.872 861.613c8.965 0 16.241 7.276 16.241 16.244v64.946c0 8.967-7.276 16.241-16.241 16.241-8.958 0-16.232-7.274-16.232-16.241v-64.946c0-8.967 7.274-16.244 16.232-16.244zM97.45 764.184c0 8.965-7.276 16.241-16.241 16.241h-64.968c-8.965 0-16.241-7.276-16.241-16.241 0-8.958 7.276-16.234 16.241-16.234h64.968c8.965 0 16.241 7.276 16.241 16.234zM103.016 695.287l-45.938-45.938c-6.346-6.346-6.346-16.622 0-22.959 3.168-3.178 7.321-4.757 11.484-4.757 4.153 0 8.306 1.579 11.475 4.757l45.938 45.936c6.337 6.337 6.337 16.615 0 22.961-6.346 6.356-16.622 6.356-22.959 0zM973.166 201.917c-17.699 44.078-21.676 76.283-25.542 107.409-5.214 41.978-10.592 85.398-49.107 152.12l-105.552 182.819c-16.993 29.428-59.261 40.791-88.735 23.779-9.857-5.697-18.080-14.246-23.729-24.457-10.927 15.742-26.871 26.974-45.575 31.993-20.953 5.621-42.825 2.712-61.614-8.104-17.856-10.314-30.308-26.434-36.367-44.609-25.401 20.982-62.225 25.209-92.386 7.769-17.55-10.138-30.437-26.101-36.617-45.258l-139.735 196.525c-41.115 56.036-81.551 44.635-102.031 32.808-18.851-10.88-31.293-28.211-35.056-48.819-3.456-18.946 0.623-39.73 11.727-58.926l224.704-365.084c4.693-7.628 14.69-10.014 22.319-5.323 7.657 4.712 10.045 14.7 5.333 22.328l-224.483 364.701c-6.996 12.155-9.717 25.097-7.645 36.488 2.053 11.225 8.741 20.385 19.343 26.5 7.305 4.227 29.521 17.086 59.466-23.684l173.809-244.471c5.017-7.043 14.698-8.929 22.021-4.255 7.293 4.693 9.614 14.291 5.276 21.798-6.513 11.263-8.232 24.39-4.869 36.971 3.356 12.571 11.429 23.070 22.683 29.566 23.265 13.418 53.146 5.445 66.554-17.83l16.177-28.023c0.036-0.038 0.045-0.067 0.064-0.102 4.479-7.778 14.422-10.407 22.178-5.939 7.769 4.479 10.426 14.403 5.947 22.181-13.425 23.265-5.445 53.11 17.83 66.545 11.253 6.515 24.457 8.232 36.964 4.869 12.581-3.382 23.070-11.429 29.564-22.699l24.307-42.090c0.019-0.029 0.038-0.064 0.045-0.093 4.508-7.769 14.422-10.416 22.2-5.947 7.766 4.479 10.423 14.4 5.947 22.178-4.108 7.098-5.131 16.075-2.797 24.624 2.341 8.501 7.683 15.701 14.681 19.743 14.224 8.213 36.198 2.305 44.376-11.884l105.552-182.829c35.232-61.007 39.98-99.327 44.999-139.875 3.734-30.066 7.564-61.071 22.587-102.326l-314.146-181.38c-54.718 58.926-138.36 120.761-248.883 183.944-11.95 6.839-23.805 13.444-35.449 19.79-29.842 16.27-50.917 48.624-51.288 78.645-0.167 13.639 4.115 32.492 25.487 44.821 7.776 4.498 10.442 14.431 5.966 22.197-4.498 7.759-14.46 10.416-22.197 5.939-27.281-15.768-42.111-41.814-41.719-73.347 0.492-41.878 27.911-84.777 68.217-106.779 11.448-6.234 23.108-12.73 34.861-19.457 113.599-64.946 197.567-127.906 249.561-187.093 3.168-3.606 7.657-5.518 12.2-5.518 2.778 0 5.585 0.716 8.121 2.174l337.506 194.853c6.996 4.041 9.952 12.616 6.95 20.126z" />
<glyph unicode="&#xe955;" glyph-name="164" d="M512 9.818c-16.591 0-30.089 13.496-30.089 30.087s13.498 30.087 30.089 30.087c16.591 0 30.089-13.496 30.089-30.087s-13.498-30.087-30.089-30.087zM512 97.267c-31.629 0-57.362-25.731-57.362-57.36s25.733-57.362 57.362-57.362c31.629 0 57.362 25.731 57.362 57.36s-25.733 57.362-57.362 57.362v0zM716.047 492.662c24.627 0 44.662-20.036 44.662-44.662s-20.036-44.662-44.662-44.662c-24.625 0-44.662 20.036-44.662 44.662s20.035 44.662 44.662 44.662zM716.047 376.065c39.665 0 71.935 32.271 71.935 71.935s-32.269 71.935-71.935 71.935c-39.665 0-71.936-32.269-71.936-71.935s32.269-71.935 71.936-71.935v0zM307.953 492.662c24.627 0 44.662-20.036 44.662-44.662s-20.036-44.662-44.662-44.662c-24.625 0-44.662 20.035-44.662 44.662s20.035 44.662 44.662 44.662zM307.953 376.065c39.665 0 71.935 32.271 71.935 71.935s-32.269 71.935-71.935 71.935c-39.665 0-71.935-32.269-71.935-71.935s32.269-71.935 71.935-71.935v0zM103.907 9.818c-16.591 0-30.089 13.496-30.089 30.087s13.498 30.087 30.089 30.087c16.591 0 30.087-13.496 30.087-30.087s-13.496-30.087-30.087-30.087zM103.907 97.267c-31.631 0-57.362-25.733-57.362-57.362s25.731-57.36 57.362-57.36c31.629 0 57.36 25.731 57.36 57.36s-25.733 57.362-57.36 57.362v0zM920.093 9.818c-16.591 0-30.087 13.496-30.087 30.087s13.496 30.087 30.087 30.087c16.591 0 30.089-13.496 30.089-30.087s-13.498-30.087-30.089-30.087zM920.093 97.267c-31.629 0-57.36-25.731-57.36-57.36s25.733-57.362 57.36-57.362c31.631 0 57.362 25.731 57.362 57.36s-25.731 57.362-57.362 57.362v0zM512 886.182c40.7 0 73.813-33.111 73.813-73.813s-33.113-73.811-73.813-73.811c-40.7 0-73.813 33.111-73.813 73.813s33.113 73.811 73.813 73.811zM512 711.285c55.738 0 101.085 45.345 101.085 101.085s-45.347 101.084-101.085 101.084c-55.738 0-101.085-45.345-101.085-101.085s45.347-101.084 101.085-101.084v0zM472.165 115.311c6.658 3.518 9.205 11.769 5.687 18.427l-33.896 64.158c-9.962 18.856-29.395 30.567-50.718 30.567l-71.649-0.009v102.951c0 7.531-6.104 13.636-13.636 13.636s-13.636-6.105-13.636-13.636v-102.955l-71.669-0.009c-21.322-0.002-40.751-11.715-50.713-30.567l-33.885-64.142c-3.518-6.66-0.971-14.909 5.689-18.427 2.031-1.073 4.209-1.582 6.356-1.582 4.893 0 9.625 2.642 12.071 7.269l33.885 64.142c5.224 9.887 15.416 16.033 26.6 16.033l170.587 0.024c11.184 0 21.378-6.144 26.602-16.033l33.896-64.158c3.52-6.66 11.767-9.211 18.429-5.689M367.035 537.965c6.662-3.522 14.909-0.973 18.427 5.687l22.591 42.762c2.693 5.1 7.949 8.267 13.716 8.267h180.465c5.767 0 11.024-3.167 13.716-8.267l22.591-42.762c2.445-4.627 7.175-7.269 12.071-7.269 2.147 0 4.327 0.509 6.356 1.582 6.66 3.518 9.205 11.767 5.689 18.427l-22.591 42.762c-7.431 14.064-21.927 22.8-37.833 22.8h-76.598v44.667c0 7.531-6.104 13.636-13.636 13.636s-13.636-6.105-13.636-13.636v-44.667h-76.596c-15.905 0-30.402-8.736-37.833-22.8l-22.591-42.762c-3.516-6.658-0.971-14.909 5.691-18.427M873.904 113.72c2.147 0 4.327 0.509 6.356 1.582 6.66 3.518 9.205 11.767 5.689 18.427l-33.885 64.142c-9.962 18.853-29.391 30.564-50.713 30.567l-71.669 0.009v102.955c0 7.531-6.104 13.636-13.636 13.636s-13.636-6.105-13.636-13.636v-102.951l-71.649 0.009c-21.324 0-40.756-11.713-50.718-30.567l-33.896-64.158c-3.518-6.658-0.971-14.909 5.687-18.427 6.662-3.522 14.911-0.971 18.429 5.687l33.896 64.158c5.224 9.891 15.416 16.033 26.602 16.033l170.587-0.024c11.184 0 21.376-6.145 26.6-16.033l33.885-64.142c2.445-4.625 7.175-7.267 12.071-7.267" />
<glyph unicode="&#xe956;" glyph-name="165" horiz-adv-x="819" d="M778.27 560.652h-170.269c-22.124 0-40.215-17.759-40.215-39.457s18.090-39.446 40.215-39.446h129.374v-466.842h-656.936v466.842h142.786c22.124 0 40.215 17.747 40.215 39.446s-18.090 39.457-40.215 39.457h-183.669c-22.121 0-39.555-19.729-39.555-41.43v-547.060c0-21.698 17.434-36.156 39.555-36.156h738.714c22.124 0 39.555 14.458 39.555 36.156v547.060c0 21.701-17.431 41.43-39.555 41.43zM402.206 264.765c22.121 0 40.227 17.756 40.227 39.443v534.572l171.597-149.913c7.382-6.573 17.434-9.86 26.812-9.86 11.404 0 22.124 4.601 30.177 13.147 14.74 16.442 13.4 41.427-3.363 55.885l-231.266 201.87c-14.743 12.488-36.196 13.144-51.618 1.314-7.37-3.298-13.412-9.213-17.431-15.784l-200.432-188.715c-16.082-15.116-16.754-40.101-1.343-55.888 15.423-15.784 40.895-16.439 56.977-1.314l139.436 131.501v-516.815c0-21.687 18.105-39.443 40.227-39.443z" />
<glyph unicode="&#xe957;" glyph-name="" d="M938.667 489.354h-392.533v375.467c0 18.876-15.292 34.133-34.133 34.133s-34.133-15.258-34.133-34.133v-375.467h-392.533c-18.842 0-34.133-15.258-34.133-34.133s15.292-34.133 34.133-34.133h392.533v-409.6c0-18.876 15.292-34.133 34.133-34.133s34.133 15.258 34.133 34.133v409.6h392.533c18.842 0 34.133 15.258 34.133 34.133s-15.292 34.133-34.133 34.133z" />
<glyph unicode="&#xe958;" glyph-name="" d="M571.259 507.259c0 32.728-26.531 59.259-59.259 59.259h-88.889v-59.259h88.889v-325.926h-59.259v-59.259h177.778v59.259h-59.259v325.926zM571.259 685.037c0-32.728-26.531-59.259-59.259-59.259s-59.259 26.531-59.259 59.259c0 32.728 26.531 59.259 59.259 59.259s59.259-26.531 59.259-59.259z" />
<glyph unicode="&#xe959;" glyph-name="-" d="M697.299 882.376l-353.039-353.039c-2.805-2.805-4.812-6.304-5.806-10.144l-30.301-116.699c-1.981-7.639 0.226-15.753 5.806-21.337 4.23-4.226 9.91-6.519 15.738-6.519 1.866 0 3.744 0.234 5.595 0.712l116.699 30.304c3.84 0.998 7.342 3.005 10.144 5.806l353.031 353.031c0.007 0.007 0.015 0.011 0.019 0.015s0.011 0.015 0.015 0.019l71.072 71.072c8.697 8.693 8.697 22.788 0.004 31.477l-86.391 86.402c-4.178 4.178-9.836 6.522-15.742 6.522-5.903 0-11.565-2.345-15.738-6.522l-71.068-71.068c-0.007-0.007-0.015-0.011-0.019-0.015s-0.011-0.015-0.019-0.019zM434.944 447.228l-74.177-19.263 19.259 74.177 333.030 333.030 54.914-54.918-333.026-333.026zM784.143 906.259l54.914-54.918-39.606-39.606-54.914 54.918 39.606 39.606zM870.537 718.759c-12.292 0-22.261-9.969-22.261-22.261v-715.364h-698.39v851.174h412.060c12.292 0 22.261 9.969 22.261 22.261s-9.969 22.261-22.261 22.261h-434.321c-12.292 0-22.261-9.969-22.261-22.261v-895.699c0-12.292 9.969-22.261 22.261-22.261h742.912c12.292 0 22.261 9.969 22.261 22.261v737.629c0 12.292-9.965 22.261-22.261 22.261z" />
<glyph unicode="&#xe95a;" glyph-name="" d="M325.673 239.893l-244.255 244.255-81.418-81.418 325.673-325.673 697.871 697.871-81.418 81.418z" />
<glyph unicode="&#xe95b;" glyph-name="" d="M796.23 572.638c76.56-0.51 145.233 47.631 171.761 120.408s5.227 154.595-53.276 204.64c-58.504 50.045-141.675 57.593-208.024 18.879s-101.658-115.395-88.314-191.79l-305.275-120.669c-74.585 56.391-179.24 46.152-241.801-23.659s-62.56-176.354 0-246.164c62.56-69.81 167.215-80.050 241.801-23.659l305.788-120.409c-15.598-90.944 38.006-179.444 125.090-206.524s180.45 15.716 217.879 99.87c37.43 84.154 7.233 183.383-70.467 231.562s-178.636 30.259-235.546-41.817l-284.359 112.087c19.589 46.019 19.589 98.186 0 144.205l283.589 111.957c34.165-43.649 86.174-69.042 141.153-68.917z" />
<glyph unicode="&#xe95c;" glyph-name="" d="M1016.32 824.32l-128 128c-10.24 10.24-25.6 10.24-35.84 0l-563.2-563.2c-2.56-2.56-5.12-7.68-7.68-12.8l-25.6-153.6c-2.56-7.68 2.56-15.36 7.68-23.040 5.12-5.12 10.24-7.68 17.92-7.68h5.12l153.6 25.6c5.12 0 10.24 2.56 12.8 7.68l563.2 563.2c10.24 10.24 10.24 25.6 0 35.84zM422.4 266.24l-110.080-17.92 17.92 110.080 28.16 28.16 92.16-92.16-28.16-28.16zM486.4 330.24l-92.16 92.16 476.16 476.16 92.16-92.16-476.16-476.16zM870.4 568.32v-555.52c0-43.52-33.28-76.8-76.8-76.8h-716.8c-43.52 0-76.8 33.28-76.8 76.8v716.8c0 43.52 33.28 76.8 76.8 76.8h558.080l-51.2-51.2h-506.88c-15.36 0-25.6-10.24-25.6-25.6v-716.8c0-15.36 10.24-25.6 25.6-25.6h716.8c15.36 0 25.6 10.24 25.6 25.6v504.32l51.2 51.2z" />
<glyph unicode="&#xe95d;" d="M441.955 670.893l-118.677 68.53c-4.767 2.759-10.64 2.715-15.377-0.089l-120.249-71.241c-7.234-4.283-9.627-13.63-5.34-20.864 2.84-4.797 7.911-7.468 13.118-7.468 2.641 0 5.307 0.684 7.748 2.127l112.586 66.699 110.966-64.076c7.278-4.194 16.587-1.694 20.803 5.578 4.205 7.286 1.712 16.596-5.577 20.805z" />
<glyph unicode="&#xe95e;" d="M915.417 713.868l-191.529 110.595c0.847 4.298 1.342 8.729 1.342 13.275-0.004 37.786-30.736 68.526-68.521 68.526s-68.521-30.74-68.521-68.53c0-37.79 30.736-68.53 68.521-68.53 22.3 0 41.953 10.871 54.475 27.419l181.388-104.736v-210.852l-182.572-105.421-182.576 105.421v219.64c0 5.263-2.833 9.668-6.89 12.405-0.355 0.248-0.643 0.566-1.021 0.784l-0.999 0.577c-0.178 0.078-0.314 0.211-0.492 0.285l-196.311 113.358c-4.715 2.722-10.514 2.722-15.226 0l-197.801-114.216c-4.715-2.722-7.615-7.749-7.615-13.19v-228.432c0-5.445 2.899-10.471 7.615-13.19l190.335-109.907v-227.164c0-5.445 2.899-10.471 7.615-13.19l197.801-114.216c2.356-1.361 4.982-2.038 7.615-2.038s5.255 0.677 7.615 2.038l183.9 106.19c12.008-10.36 27.437-16.855 44.505-16.855 37.785 0 68.521 30.74 68.521 68.53s-30.736 68.53-68.521 68.53c-37.785 0-68.521-30.74-68.521-68.53 0-9.635 2.041-18.786 5.644-27.112l-173.138-99.976-182.572 105.417v218.546l182.572 105.424 190.335-109.907c2.356-1.361 4.982-2.038 7.615-2.038 2.629 0 5.255 0.677 7.615 2.038l197.801 114.216c4.715 2.722 7.615 7.749 7.615 13.19v228.432c-0.011 5.445-2.911 10.471-7.618 13.193zM656.709 799.664c-20.988 0-38.066 17.081-38.066 38.071s17.079 38.071 38.066 38.071c20.988 0 38.066-17.081 38.066-38.071s-17.079-38.071-38.066-38.071zM748.068 190.516c20.988 0 38.066-17.081 38.066-38.071s-17.079-38.071-38.066-38.071c-8.769 0-16.753 3.1-23.195 8.104-0.074 2.434-0.529 4.868-1.831 7.124-2.16 3.728-5.669 6.158-9.549 7.124-2.197 4.805-3.495 10.101-3.495 15.72 0 20.99 17.079 38.071 38.070 38.071zM314.103 375.614l-182.576 105.421v210.852l182.572 105.421 182.576-105.421 0.004-210.852-182.576-105.421z" />
<glyph unicode="&#xe95f;" d="M0 374.857h1024v-48.762h-1024v48.762z" />
<glyph unicode="&#xe960;" d="M0 423.619h1024v-48.762h-1024v48.762z" />
<glyph unicode="&#xe961;" glyph-name="--" d="M512.115 570.205l403.147-403.154c6.837-6.834 14.706-10.254 23.595-10.254s16.758 3.417 23.581 10.254l51.297 51.297c6.834 6.841 10.265 14.706 10.265 23.574 0 8.893-3.431 16.758-10.265 23.595l-478.021 478.043c-6.837 6.837-14.706 10.247-23.595 10.247-8.893 0-16.758-3.41-23.595-10.247l-478.021-478.018c-6.848-6.848-10.265-14.72-10.265-23.609 0-8.878 3.417-16.743 10.265-23.581l51.261-51.297c6.837-6.834 14.71-10.244 23.606-10.244 8.882 0 16.747 3.406 23.584 10.244l403.161 403.151z" />
<glyph unicode="&#xe962;" glyph-name="" d="M0 960h1024v-1024h-1024v1024z" />
<glyph unicode="&#xe963;" glyph-name="" d="M988.291 110.503l-345.622 345.622 350.232 350.232c15.955 15.955 29.169 71.929-13.588 114.686s-98.734 29.541-114.686 13.588l-350.234-350.234-345.624 345.624c-15.741 15.745-71.547 28.221-114.872-15.104s-30.851-99.134-15.108-114.876l345.626-345.626-350.234-350.234c-15.951-15.951-29.171-71.927 13.588-114.686s98.736-29.539 114.686-13.588l350.234 350.234 345.626-345.626c15.741-15.741 71.547-28.221 114.876 15.108s30.843 99.137 15.101 114.88z" />
<glyph unicode="&#xe964;" glyph-name="" horiz-adv-x="696" d="M695.277 698.116c0 8.52-3.267 16.194-8.491 21.658-0.304 0.386-0.585 0.788-0.903 1.162l-193.899 226.936c-0.313 0.366-0.662 0.688-0.986 1.040-5.043 6.762-12.724 11.088-21.335 11.088-0.557 0-1.099-0.056-1.647-0.090-0.537 0.026-1.065 0.090-1.6 0.090h-430.405c-19.283 0-34.968-17.122-34.968-38.168v-947.666c0-21.046 15.687-38.166 34.968-38.166h624.3c19.283 0 34.968 17.122 34.968 38.166v720.738c0 0.558-0.049 1.108-0.071 1.664 0.022 0.518 0.070 1.026 0.070 1.548zM497.163 853.784l107.362-125.654h-107.362v125.654zM640.275-3.966h-584.229v903.932h386.113v-200.286c0-0.264 0.029-0.52 0.037-0.782-0.005-0.262-0.037-0.518-0.037-0.782 0-16.578 12.314-30.016 27.501-30.016h170.615v-672.066zM263.57 844.848h-129.957c-15.189 0-27.503-13.44-27.503-30.016s12.314-30.016 27.503-30.016h129.957c15.189 0 27.501 13.44 27.501 30.016s-12.312 30.016-27.501 30.016zM360.807 746.574h-227.195c-15.189 0-27.503-13.44-27.503-30.016s12.314-30.018 27.503-30.018h227.195c15.189 0 27.501 13.44 27.501 30.018s-12.312 30.016-27.501 30.016zM428.376 106.258h-294.763c-15.189 0-27.503-13.44-27.503-30.016s12.314-30.016 27.503-30.016h294.763c15.189 0 27.501 13.44 27.501 30.016s-12.312 30.016-27.501 30.016zM530.229 106.258h-16.501c-15.189 0-27.501-13.44-27.501-30.016s12.314-30.016 27.501-30.016h16.501c15.189 0 27.501 13.44 27.501 30.016s-12.312 30.016-27.501 30.016z" />
<glyph unicode="&#xe965;" glyph-name="" d="M386.127 423.131v-346.697c0-4.389 2.993-10.24 7.483-11.703l184.084-114.103c2.993-1.463 4.49-2.926 7.483-2.926s4.49 0 7.483 1.463c4.49 2.926 7.483 7.314 7.483 13.166v460.8l366.671 473.966c5.986 10.24 7.483 23.406 1.497 33.646s-16.463 16.091-29.932 16.091h-890.486c-11.973 0-23.946-5.851-29.932-16.091s-5.986-23.406 1.497-33.646l366.671-473.966zM44.898 916.114c0 1.463 1.497 1.463 2.993 1.463h891.983c1.497 0 2.993-1.463 2.993-1.463 0-1.463 1.497-1.463 0-2.926l-368.167-476.891c-1.497-2.926-2.993-5.851-2.993-8.777v-437.394l-154.151 93.623v343.771c0 2.926-1.497 5.851-2.993 8.777l-369.664 475.429v4.389z" />
<glyph unicode="&#xe966;" glyph-name="-" d="M278.756 556.089l-79.644-79.644 256-256 568.889 568.889-79.644 79.644-489.244-489.244-176.356 176.356zM910.222 49.778h-796.444v796.444h568.889v113.778h-568.889c-62.578 0-113.778-51.2-113.778-113.778v-796.444c0-62.578 51.2-113.778 113.778-113.778h796.444c62.578 0 113.778 51.2 113.778 113.778v455.111h-113.778v-455.111z" />
<glyph unicode="&#xe967;" glyph-name="-" d="M962.535 898.545c-40.97 40.97-90.308 61.455-147.999 61.455h-605.082c-57.69 0-107.026-20.485-148.001-61.455-40.963-40.975-61.448-90.3-61.448-148.001v-605.085c0-57.688 20.485-107.021 61.448-147.999 40.975-40.973 90.311-61.458 148.001-61.458h605.082c57.69 0 107.013 20.485 148.001 61.458 40.973 40.978 61.455 90.308 61.455 147.999v605.085c-0.010 57.69-20.495 107.026-61.458 148.001zM930.892 145.459c0-31.991-11.386-59.387-34.172-82.185-22.785-22.785-50.176-34.161-82.187-34.161h-605.080c-32.001 0-59.395 11.376-82.185 34.161-22.785 22.795-34.179 50.194-34.179 82.185v605.085c0 31.999 11.394 59.392 34.179 82.185 22.79 22.788 50.184 34.179 82.185 34.179h605.082c32.009 0 59.4-11.394 82.187-34.179 22.785-22.79 34.172-50.184 34.172-82.185v-605.085h-0.003z" />
</font>
</defs>
</svg>
